<?xml version="1.0" encoding="utf-8"?>
<!-- Generator: Adobe Illustrator 24.0.3, SVG Export Plug-In . SVG Version: 6.00 Build 0)  -->
<svg version="1.1" id="Layer_1" xmlns="http://www.w3.org/2000/svg" xmlns:xlink="http://www.w3.org/1999/xlink" x="0px" y="0px"
	 viewBox="0 0 128 128" style="enable-background:new 0 0 128 128;" xml:space="preserve">
<style type="text/css">
	.st0{fill:#646464;}
	.st1{fill:#0049A5;}
</style>
<path id="Path_1" class="st0" d="M61.9,14.5c-0.3-0.3-0.8-0.5-1.2-0.5H24.2c-0.9,0-1.7,0.7-1.7,1.7c0,0,0,0.1,0,0.1l5,76.6v13.3
	c0,4.6,3.7,8.3,8.3,8.3h61.4c4.6,0,8.3-3.7,8.3-8.3V82.3c0-3.3-2-6.3-5-7.6V69c0.1-5.5-2.3-10.7-6.4-14.3c-1.9-1.7-4-3-6.4-4
	c-0.8-0.3-1.7,0.1-2.1,0.9c-0.8,1.2-1.9,2.2-3.2,2.9c-2.4,1.4-7,3-14.9,3c-2.7,0-5.4,0.3-8,0.9l2.8-42.8
	C62.4,15.3,62.2,14.9,61.9,14.5z M58.9,17.3l-0.2,3.3H26.1l-0.2-3.3L58.9,17.3z M49.1,104V84h53.1v20H49.1z M39.1,104v-1.7
	c0-0.9,0.7-1.7,1.7-1.7h3.3c0.9,0,1.7,0.7,1.7,1.7v1.7H39.1z M45.7,97.6c-0.5-0.2-1.1-0.3-1.7-0.3h-3.3c-2.8,0-5,2.2-5,5v1.7h-5V94
	h14.9L45.7,97.6z M31.1,107.3h14.8c0.2,1.2,0.8,2.3,1.5,3.3H35.8C33.7,110.7,31.8,109.3,31.1,107.3z M97.2,110.7H54
	c-2.1,0-4-1.3-4.7-3.3h52.6C101.2,109.3,99.3,110.7,97.2,110.7L97.2,110.7z M101.9,80.7H49.3c0.7-2,2.6-3.3,4.7-3.3h43.2
	C99.3,77.3,101.2,78.7,101.9,80.7L101.9,80.7z M54,74v-3.3h43.2V74H54z M84.5,57.2c1.3-0.7,2.4-1.7,3.3-2.8c1.5,0.8,2.9,1.7,4.2,2.9
	c2.9,2.6,4.7,6.2,5.1,10h-43c0.2-1,0.7-2,1.3-2.8c2.1-2.4,6.2-3.6,12.1-3.6C74.8,60.9,80.5,59.7,84.5,57.2z M52.9,62.5
	c-1.5,1.8-2.3,4-2.2,6.3c0,0.1,0,0.1,0,0.2v5.7c-3,1.3-5,4.3-5,7.6v8.3h-15L26.4,24h32.1l-2.3,35.9C54.9,60.5,53.8,61.4,52.9,62.5
	L52.9,62.5z"/>
<path id="Path_2" class="st1" d="M84.3,90.3c-5.4-2-11.4-2-16.9,0c-3.6,1.6-4.2,3.7-4.2,4.8s0.5,3.2,4.2,4.8c5.4,2,11.4,2,16.9,0
	c3.6-1.6,4.2-3.7,4.2-4.8S88,91.8,84.3,90.3z M75.9,98.2c-5.9,0-9.5-2-9.5-3.2s3.6-3.2,9.5-3.2c5.9,0,9.5,2,9.5,3.2
	S81.8,98.2,75.9,98.2L75.9,98.2z"/>
<path id="Path_3" class="st1" d="M50.9,26.6H32c-0.9,0-1.6,0.7-1.6,1.6c0,0,0,0,0,0v9.5c0,0.9,0.7,1.6,1.6,1.6c0,0,0,0,0,0h18.9
	c0.9,0,1.6-0.7,1.6-1.6c0,0,0,0,0,0v-9.5C52.5,27.3,51.8,26.6,50.9,26.6C50.9,26.6,50.9,26.6,50.9,26.6z M49.3,36.1H33.5v-6.3h15.8
	V36.1z"/>
<path id="Path_4" class="st0" d="M47.7,44.1H35.1c-0.9,0-1.6,0.8-1.5,1.6c0,0.8,0.7,1.5,1.5,1.5h12.6c0.9,0,1.6-0.7,1.6-1.5
	C49.4,44.8,48.7,44.1,47.7,44.1C47.8,44.1,47.8,44.1,47.7,44.1z"/>
</svg>
