<svg version="1.1" id="Layer_1" xmlns="http://www.w3.org/2000/svg" x="0" y="0" viewBox="0 0 128 128" xml:space="preserve"><style>.st1{fill:#1c499c}</style><g id="_645311" transform="translate(-.002)"><g id="Group_17933" transform="translate(.002)"><g id="Group_17932"><path id="Path_17279" d="M114 112.2L111.2 75c-.4-5.3-4.3-9.7-9.5-10.6l-16.4-3.7-4.8-1.1c.8-1 1.6-2 2.3-3.1.1-.1.1-.2.2-.3l.9-1.5c.1-.2.2-.3.2-.5.3-.5.5-1.1.8-1.6.1-.2.1-.3.2-.5.2-.6.5-1.1.7-1.7 0-.1.1-.3.1-.4.2-.6.4-1.3.6-1.9V48c.2-.7.3-1.5.5-2.2h2c2.8 0 5-2.2 5-5s-2.2-5-5-5h-2.1c-.1-.3-.1-.6-.2-.9-.1-.4-.2-.9-.3-1.3v-.1c-.1-.3-.1-.6-.2-.9-.1-.3-.2-.7-.3-1 0-.1-.1-.3-.1-.4l-.3-.9c-.1-.3-.2-.6-.4-.9 0-.1-.1-.1-.1-.2-.1-.3-.3-.7-.4-1l-.1-.1c-.3-.7-.7-1.4-1.1-2l-.1-.1c-.4-.6-.8-1.3-1.2-1.9 0-.1-.1-.1-.2-.2-.4-.9-.9-1.4-1.3-1.9l-.3-.3c-.4-.5-.8-.9-1.3-1.3-.2-.1-.3-.3-.5-.4-.4-.3-.7-.7-1.1-1-.2-.2-.5-.4-.7-.6s-.6-.4-.8-.6c-.1-.1-.2-.1-.3-.2-.3-.2-.5-.3-.8-.5-.1-.1-.2-.1-.3-.2l-.2-.1-.6-.3c-.4-.2-.8-.4-1.3-.6-.2-.1-.5-.2-.8-.3-.4-.2-.8-.3-1.2-.4-.3-.1-.6-.2-1-.3-.4-.1-.7-.2-1.1-.3-.4-.1-.8-.2-1.3-.2-.3 0-.6-.1-.9-.1-.6-.2-1.4-.3-2.1-.3-.7 0-1.5 0-2.2.1-.3 0-.6.1-.9.1-.4.1-.8.1-1.3.2-.4.1-.7.2-1.1.3-.3.1-.6.2-1 .3-.4.1-.8.3-1.2.4-.3.1-.5.2-.8.3-.4.2-.9.4-1.3.6l-.6.3c-.5.3-.9.5-1.3.8l-.1.1h-.1c-.2.1-.3.2-.4.3-.4.3-.8.5-1.1.8-.2.2-.4.4-.6.5-.4.3-.7.6-1.1.9l-.4.4c-1.3 1.3-2.4 2.7-3.3 4.2-.1.1-.1.2-.2.3 0 .1-.1.1-.1.2-.3.4-.5.9-.7 1.3-.1.1-.1.3-.2.4 0 .1-.1.2-.1.3-.2.4-.4.9-.6 1.4-.2.5-.3.6-.3.7l-.1.3c-.2.5-.4 1-.5 1.5 0 .1-.1.2-.1.3 0 .1 0 .1-.1.2v.1c-.2.6-.3 1.1-.5 1.7v.1c-.2.7-.3 1.5-.5 2.2H39c-2.8 0-5 2.2-5 5s2.2 5 5 5h2.1c0 .3.1.5.1.8 0 .1 0 .3.1.4-1.3.7-2.5 1.6-3.5 2.7-3.1 3.4-3.1 7-3.2 10.8v2.2l-8.2 1.9c-5.3.9-9.2 5.3-9.6 10.6L14 112.2c-.1.9.6 1.7 1.5 1.8h96.8c.9 0 1.7-.7 1.7-1.7v-.1zM87.3 39H89c.9 0 1.7.7 1.7 1.7 0 .9-.7 1.7-1.7 1.7h-1.7c0-.6.1-1.1.1-1.7-.1-.6-.1-1.1-.1-1.7zm-46.6 3.3H39c-.9 0-1.7-.7-1.7-1.7 0-.9.7-1.7 1.7-1.7h1.7c0 .6-.1 1.1-.1 1.7.1.6.1 1.2.1 1.7zm40.9 20.9L64.1 81.5 53.8 69.6c.1-.2.2-.4.3-.5.5-1.2 1-2.4 1.4-3.7.1 0 .2.1.3.1h.1l.2.1c.1.1.3.1.4.2.3.1.6.3 1 .4.2.1.3.1.5.2s.3.1.5.2h.4c.2.1.5.1.7.2.3.1.7.1 1 .2.1 0 .3 0 .4.1h.3c.2 0 .4.1.6.1h.8c.5 0 1 .1 1.5.1H64h.2c.5 0 1 0 1.5-.1h.5c.2 0 .4-.1.6-.1h.2c.1 0 .2 0 .3-.1.3-.1.7-.1 1-.2.3-.1.5-.1.8-.2h.1c.1 0 .2-.1.3-.1.2-.1.5-.1.7-.2h.1l.9-.3h.1c.1 0 .2-.1.4-.2s.3-.2.5-.2c.4-.2.8-.4 1.2-.5l.2-.1c.2-.1.3-.2.5-.3.5-.3.9-.5 1.3-.8.1-.1.2-.1.3-.2.2-.2.5-.3.7-.5.2-.2.5-.4.8-.6.1-.1.2-.1.3-.2l4.1.8zm-15.9 37.5c0 .9-.7 1.7-1.7 1.7-.9 0-1.7-.7-1.7-1.7 0-.9.7-1.7 1.7-1.7.9 0 1.7.7 1.7 1.7zM46.4 29.6c.1-.1.1-.3.2-.4l.6-1.2c.1-.1.2-.3.2-.4.3-.4.5-.9.8-1.3 0-.1.1-.1.1-.2 1.1-1.5 2.3-2.9 3.7-4.2h.1c.4-.4.9-.7 1.4-1l.2-.1c.1-.1.2-.2.4-.2 3.2-1.8 6.8-2.8 10.5-3 1.7.1 3.4.4 5 .9.4.1.8.3 1.2.5.2.1.3.1.5.2.4.2.9.4 1.3.7l.3.2c.5.3.9.5 1.3.8l.2.1c.5.3.9.7 1.4 1h.1c2.9 2.6 5.2 5.8 6.5 9.5v.1c.2.6.4 1.1.6 1.7 0 .1.1.2.1.3.1.5.3 1 .4 1.5 0 .2.1.3.1.5v.2h-1c-3.8-1.1-7.5-2.7-11-4.8-4.1-2.5-7.9-5.6-11.1-9.2-.6-.7-1.7-.7-2.4-.1l-.2.2c-1.7 2.3-3.9 4.2-6.4 5.7-1.6 1-3.3 1.7-5.1 2.2v-.2zm-2.2 7.9c.2-1.4.4-2.7.8-4 2.9-.5 5.7-1.6 8.2-3.1 2.3-1.4 4.3-3.1 6.1-5 3.1 3.2 6.7 6.1 10.5 8.4 3.8 2.2 7.8 4 12.1 5.2.1 0 .3.1.5.1H84c0 .6.1 1.1.1 1.7 0 1-.1 2.1-.2 3.1-.6 6-3.4 11.6-7.9 15.6-.2.1-.3.3-.5.4-.3.2-.6.5-.9.7-.2.1-.4.3-.6.4-.3.2-.5.3-.8.5-.1.1-.3.2-.4.3-.1.1-.2.1-.3.2l-.6.3c-.3.2-.6.3-1 .5h-.1c-.3.1-.7.3-1.1.4l-.2.1c-.3.1-.6.2-.8.3-.2.1-.4.1-.6.2-.1 0-.3.1-.4.1-.3.1-.6.1-.9.2-.2 0-.4.1-.6.1h-.4c-.5.1-1.1.1-1.6.1h-.3c-.5 0-1-.1-1.6-.1-.2 0-.5 0-.7-.1H61.3c-.6-.1-1.1-.2-1.7-.4-.1 0-.3-.1-.4-.1s-.3-.1-.4-.1c-.4-.1-.8-.2-1.1-.4-.2-.1-.3-.1-.5-.2-.4-.2-.9-.4-1.3-.7-.1-.1-.3-.1-.4-.2l-.2-.1c-5.2-3.2-8.9-8.3-10.3-14.2-.3-1-.5-2.1-.6-3.1-.2-1.2-.3-2.4-.3-3.6-.1-1.4 0-2.4.1-3.5zM35.5 73c.3-.6.5-1.1.7-1.7.1-.2.1-.3.2-.5.1-.4.3-.8.4-1.1 0-.2.1-.3.1-.5.1-.5.3-1 .4-1.5 0-.1 0-.2.1-.3.1-.4.2-.8.2-1.2 0-.1 0-.2.1-.3.1-.5.1-.9.1-1.3v-.4-.3c.1-1.3.1-2.5.1-3.6 0-3.6 0-6.1 2.3-8.5.6-.6 1.3-1.1 2-1.6 1.8 5.5 5.3 10.3 10.1 13.6 0 .2-.1.4-.1.6-.1.4-.2.8-.4 1.2 0 .1-.1.2-.1.4-.4 1.1-.9 2.1-1.4 3.1v.1c-1.4 2.6-3.4 5-5.7 6.9-5.8 4.8-13.2 6-15.4 5.5.3-.3.6-.7.9-1 2.2-2.2 4.1-4.8 5.4-7.6zm-18 37.7l2.6-35.4c.3-3.8 3.2-7 7-7.6l7.2-1.6c-.1.5-.2.9-.3 1.4 0 .1-.1.3-.1.4-.1.3-.2.6-.3 1-.1.3-.2.5-.3.8-.1.2-.1.4-.2.6l-.6 1.5c-1.2 2.5-2.8 4.7-4.8 6.6-1.5 1.6-2.9 3.1-1.9 4.9.6 1 1.6 1.6 2.8 1.7.5.1 1.1.1 1.6.1H30.5c.6 0 1.2 0 1.8-.1.2 0 .5-.1.8-.1.4-.1.9-.1 1.3-.2.3-.1.6-.2 1-.2.4-.1.8-.2 1.3-.3.3-.1.7-.2 1-.3.4-.1.9-.3 1.3-.5.3-.1.7-.3 1-.4.5-.2.9-.4 1.4-.7.3-.2.6-.3 1-.5l1.5-.9c.3-.2.5-.3.8-.5.7-.5 1.5-1 2.1-1.6 2-1.7 3.8-3.7 5.3-5.9l10.3 11.9V96c-2.6.9-4 3.8-3 6.4s3.8 4 6.4 3c2.6-.9 4-3.8 3-6.4-.5-1.4-1.6-2.5-3-3V84.7l19.8-20.6 15.6 3.6c3.8.7 6.6 3.8 6.9 7.6l2.6 35.4H17.5z" fill="#646464"/></g></g><g id="Group_17935" transform="translate(16.321 12)"><g id="Group_17934"><path id="Path_17280" class="st1" d="M37.7 27c-2.2 0-4.3.7-6 2l2 2.7c2.4-1.8 5.6-1.8 8 0l2-2.7c-1.7-1.3-3.9-2-6-2z"/></g></g><g id="Group_17937" transform="translate(25.921 12)"><g id="Group_17936"><path id="Path_17281" class="st1" d="M48.1 27c-2.2 0-4.3.7-6 2l2 2.7c2.4-1.8 5.6-1.8 8 0l2-2.7c-1.8-1.3-3.9-2-6-2z"/></g></g><g id="Group_17939" transform="translate(21.122 18.56)"><g id="Group_17938"><path id="Path_17282" class="st1" d="M46.9 34.1c-2.4 1.8-5.6 1.8-8 0l-2 2.7c3.6 2.7 8.4 2.7 12 0l-2-2.7z"/></g></g><g id="Group_17941" transform="translate(28.002 32)"><g id="Group_17940"><path id="Path_17283" class="st1" d="M73.4 57c-2.7-6.8-10.5-10.2-17.3-7.4-3.4 1.4-6.1 4-7.4 7.4-2.7.4-4.6 2.9-4.2 5.7.3 2.2 2 3.9 4.2 4.2 2.7 6.8 10.5 10.2 17.3 7.4 3.4-1.4 6.1-4 7.4-7.4 2.7-.4 4.6-2.9 4.2-5.7-.3-2.1-2-3.8-4.2-4.2zm-.7 6.7h-.5c-.7 0-1.4.5-1.6 1.2-1.6 5.3-7.1 8.3-12.4 6.7-3.2-1-5.8-3.5-6.7-6.7-.2-.7-.9-1.2-1.6-1.2h-.5c-.9 0-1.7-.7-1.7-1.7 0-.9.7-1.7 1.7-1.7h.5c.7 0 1.4-.5 1.6-1.2.9-2.9 3.1-5.3 6-6.4-.5 2.6 1 5.2 3.6 6.1.6.2 1.1.3 1.7.3.8 0 1.7-.2 2.4-.6l-1.5-3c-1 .5-2.2.2-2.8-.8-.5-.9-.2-2.1.6-2.6 4.2.2 7.9 3.1 9.1 7.1.2.7.9 1.2 1.6 1.2h.5c.9 0 1.7.7 1.7 1.7-.1.8-.8 1.6-1.7 1.6z"/></g></g><g id="Group_17943" transform="translate(32.802 37.6)"><g id="Group_17942"><path id="Rectangle_10498" class="st1" d="M49.5 54.7h3.3V58h-3.3z"/></g></g><g id="Group_17945" transform="translate(37.602 37.6)"><g id="Group_17944"><path id="Rectangle_10499" class="st1" d="M54.7 54.7H58V58h-3.3z"/></g></g><g id="Group_17947" transform="translate(35.202 40)"><g id="Group_17946"><path id="Rectangle_10500" class="st1" d="M52.1 57.3h3.3v3.3h-3.3z"/></g></g></g></svg>