<svg version="1.1" id="Layer_1" xmlns="http://www.w3.org/2000/svg" x="0" y="0" viewBox="0 0 128 128" xml:space="preserve"><style>.st0{fill:#646464}.st1{fill:#1c499c}</style><g id="Rash" transform="translate(-2 -1.65)"><path id="Path_17285" class="st0" d="M51.1 70.9h3.3v3.3h-3.3v-3.3z"/><path id="Path_17286" class="st0" d="M59.4 67.6h3.3v3.3h-3.3v-3.3z"/><path id="Path_17287" class="st0" d="M59.4 75.9h3.3v3.3h-3.3v-3.3z"/><path id="Path_17288" class="st0" d="M51.1 80.8h3.3v3.3h-3.3v-3.3z"/><path id="Path_17289" class="st0" d="M22.9 77.5h3.3v3.3h-3.3v-3.3z"/><path id="Path_17290" class="st0" d="M29.5 84.2h3.3v3.3h-3.3v-3.3z"/><path id="Path_17291" class="st0" d="M32.9 77.5h3.3v3.3h-3.3v-3.3z"/><path id="Path_17292" class="st0" d="M22.9 65.9h3.3v3.3h-3.3v-3.3z"/><path id="Path_17293" class="st0" d="M42.8 65.9h3.3v3.3h-3.3v-3.3z"/><path id="Path_17294" class="st0" d="M36.2 92.4h3.3v3.3h-3.3v-3.3z"/><path id="Path_17295" class="st0" d="M42.8 90.8h3.3v3.3h-3.3v-3.3z"/><path id="Path_17296" class="st0" d="M41.1 97.4h3.3v3.3h-3.3v-3.3z"/><path id="Path_17297" class="st0" d="M36.2 102.4h3.3v3.3h-3.3v-3.3z"/><path id="Path_17298" class="st0" d="M42.8 105.7h3.3v3.3h-3.3v-3.3z"/><path id="Path_17299" class="st1" d="M69.3 94.1v-3.3c0-.9-.7-1.7-1.7-1.7H61c-.9 0-1.7.7-1.7 1.7v3.3H56c-.9 0-1.7.7-1.7 1.7v6.6c0 .9.7 1.7 1.7 1.7h3.3v3.3c0 .9.7 1.7 1.7 1.7h6.6c.9 0 1.7-.7 1.7-1.7V104h3.3c.9 0 1.7-.7 1.7-1.7v-6.6c0-.9-.7-1.7-1.7-1.7l-3.3.1zm1.7 6.6h-3.3c-.9 0-1.7.7-1.7 1.7v3.3h-3.3v-3.3c0-.9-.7-1.7-1.7-1.7h-3.3v-3.3H61c.9 0 1.7-.7 1.7-1.7v-3.3H66v3.3c0 .9.7 1.7 1.7 1.7H71v3.3z"/><path id="Path_17300" class="st0" d="M72 84.4c.4-1.3.6-2.7.6-4.1V39.4c0-3.7-3-6.6-6.6-6.6-1.2 0-2.3.3-3.3.9v-2.6c0-3.7-3-6.6-6.6-6.6-1.2 0-2.3.3-3.3.9v-2.6c0-3.7-3-6.6-6.6-6.6-3.7 0-6.6 3-6.6 6.6v2.6c-1-.6-2.1-.9-3.3-.9-3.7 0-6.6 3-6.6 6.6v16.6c-3.6-2.8-8.8-2.1-11.5 1.5-1.1 1.5-1.7 3.2-1.7 5.1v26.5c0 7.6 5.7 14 13.3 14.8V114c0 .9.7 1.7 1.7 1.7H63c.1 0 .2 0 .3-.1.4 0 .9.1 1.3.1 9.2 0 16.6-7.4 16.6-16.6-.3-6.2-3.7-11.8-9.2-14.7zm-39.1 27.9V94.1c0-.9-.7-1.7-1.7-1.7-6.4 0-11.6-5.2-11.6-11.6V54.3c0-2.7 2.2-5 5-5 2.7 0 5 2.2 5 5v18.2c0 .9.7 1.7 1.7 1.7h5c3.7 0 6.6 3 6.6 6.6v6.6h3.3v-6.6c0-5.5-4.5-9.9-9.9-9.9H33V31.1c0-1.8 1.4-3.4 3.2-3.4 1.8 0 3.4 1.4 3.4 3.2V64.2h3.3V22.9c0-1.8 1.6-3.3 3.4-3.2 1.8 0 3.2 1.5 3.2 3.2v41.4h3.3V31.1c0-1.8 1.4-3.4 3.2-3.4 1.8 0 3.4 1.4 3.4 3.2v31.7h3.3V39.4c0-1.8 1.6-3.3 3.4-3.2 1.8 0 3.2 1.5 3.2 3.2v40.9c0 1-.1 1.9-.4 2.8-1.5-.4-3-.7-4.6-.7-9.1 0-16.6 7.4-16.6 16.5 0 5.2 2.5 10.2 6.7 13.3l-21.5.1zm31.4 0C57 112.3 51 106.4 51 99s6-13.2 13.3-13.2c7.3 0 13.3 5.9 13.3 13.3 0 7.3-5.9 13.2-13.3 13.2z"/><path id="Path_17301" class="st1" d="M105.7 27.2l-4.3-2.5 1.7-2.9 2.9 1.7 1.7-2.9-8.6-5-1.7 2.9 2.9 1.7-1.7 2.9-4.3-2.5c-.4-.2-.8-.3-1.2-.2-.4.1-.8.4-1 .8l-13.2 23c-.5.8-.2 1.8.6 2.3l1.4.8-2.5 4.3c-.2.4-.3.8-.2 1.2.1.4.4.8.8 1l1.4.8-4.1 7.2 2.9 1.7 4.1-7.2 1.4.8c.8.4 1.8.2 2.3-.6l2.5-4.3 1.4.8c.3.1.5.2.8.2h.4c.4-.1.8-.4 1-.8l13.3-23c.4-.7.1-1.7-.7-2.2zM84.8 53.4L82 51.7l1.7-2.9 2.9 1.7-1.8 2.9zM101 32.1l-4.3-2.5-1.7 2.9 4.3 2.5-1.7 2.9-4.3-2.5-1.7 2.9 4.3 2.5-1.7 2.9-4.2-2.6-1.7 2.9 4.3 2.5-1.6 2.8-8.6-5 11.6-20 8.6 5-1.6 2.8z"/><path id="Path_17302" class="st1" d="M95.3 54.8L93 57.2l6.6 6.6c.3.3.7.5 1.2.5h14.9V61h-14.2l-6.2-6.2z"/><path id="Path_17303" class="st1" d="M99.1 67.6h3.3v3.3h-3.3v-3.3z"/><path id="Path_17304" class="st1" d="M105.8 67.6h9.9v3.3h-9.9v-3.3z"/><path id="Path_17305" class="st1" d="M99.1 74.2h16.6v3.3H99.1v-3.3z"/><path id="Path_17306" class="st1" d="M105.8 54.3h9.9v3.3h-9.9v-3.3z"/></g></svg>