<svg version="1.1" id="Layer_1" xmlns="http://www.w3.org/2000/svg" x="0" y="0" viewBox="0 0 128 128" xml:space="preserve"><style>.st1{fill:#1c499c}</style><g id="_050---Human-Brain"><path id="Shape" d="M109.1 52.5c.1-4.8-.5-9.5-1.7-14.2-1.7-5.7-5.2-10.8-10-14.3-9.4-7.4-18.2-10.4-28.5-9.9-5.4.4-10.8 1.1-16.1 2.3-7.5 1.5-13 4.2-16.7 8.1-2.9 3.1-5.2 6.8-6.7 10.9-.6 1.8-1.1 3.6-1.5 5.5l-.1.6c-.4 1.3-.8 2.6-1.4 3.8-.3.8-.7 1.5-1 2.3-.4.9-.5 1.8-.4 2.8.3 1.5 1.2 2.8 2.4 3.7.8.7 1.4 1.3 1.4 1.8-.1.2-.2.5-.3.7-2 4.2-4.4 8.2-7.3 11.9-1.4 1.3-2.2 3-2.2 4.9.4 1.3 1.2 2.4 2.4 3.1.6.4 1.1.7 1.7 1 .7.4 1.9 1 2 1.4.1.6 0 1.1-.2 1.7-.2.5-.5 1-.7 1.4-.6 1.1-1.6 2.9-.1 4.2.4.3 1 .8 1.5 1.2-.4.7-.6 1.6-.5 2.4.1.7.4 1.2 1 1.6.4.3.8.5 1.2.7 1 .6 1.4.8 1.5 1.3.1.7 0 1.4-.2 2-.1.4-.2.9-.2 1.3-.2 1.5 0 3.1.6 4.5.9 3.2 4.1 5.1 7.3 4.4 4.8-1.1 9.5-2.6 14.1-4.2 3.7 2.2 6.1 8.9 6.7 11.4.2.7.9 1.3 1.6 1.3l41.8-.1c.9 0 1.7-.7 1.7-1.7 0-.2 0-.3-.1-.5-.4-1.1-1-2.2-1.7-3.2-.4-.6-.8-1.2-1.1-1.8-.7-1.5-1.4-3.1-1.9-4.8-1-3.2-1.6-6.5-2-9.9-.6-5 .2-10 2.2-14.6 1.2-2.5 2.8-4.9 4.5-7.1l3-4.2c2.5-4.1 4-8.9 4-13.7zm-9.8 15.9c-1.9 2.4-3.6 5-4.9 7.8-2.2 5.1-3.1 10.8-2.4 16.4.4 3.5 1.1 7 2.1 10.4.6 1.8 1.2 3.5 2.1 5.2.4.7.8 1.5 1.3 2.2l.1.2-37.8.1c-1.1-4-3.1-7.6-5.9-10.6.4-.1.8-.3 1.2-.4 1.3-.4 2.2-.8 2.7-.9 7.1-2.2 10.7-5.5 10.6-9.7-.1-.9-.8-1.6-1.7-1.6-.9 0-1.6.8-1.6 1.7 0 1.7-1.4 4.2-8.3 6.4-.5.2-1.5.5-2.8 1-1.2.4-2.6.9-4.2 1.5-4.7 1.7-9.5 3.1-14.3 4.3-1.6.3-3.1-.7-3.4-2.2-.4-.9-.5-1.9-.4-2.9 0-.3.1-.7.2-1 .3-1.2.4-2.4.2-3.6-.5-1.5-1.6-2.8-3.1-3.4l-.4-.2c.2-.4.4-.7.6-1 .6-.7.4-1.8-.3-2.3-.4-.3-1.4-1-2-1.6.1-.2.2-.3.3-.5.3-.5.5-1 .8-1.6.5-1.2.7-2.5.4-3.7-.4-2-2.3-3-3.8-3.8-.5-.2-.9-.5-1.4-.8-.3-.2-.7-.5-1-.8 0-.2.3-.9 1.5-2.4 3-3.8 5.5-8 7.6-12.4.4-.7.6-1.5.7-2.3-.2-1.7-1.1-3.2-2.4-4.2-.7-.6-1.3-1.2-1.4-1.7 0-.4.1-.8.3-1.2l.9-2.1c.7-1.4 1.2-2.9 1.6-4.4l.1-.6c.4-1.7.8-3.4 1.4-5.1 1.3-3.6 3.3-7 6-9.8 3.2-3.4 8.1-5.7 14.9-7.1 5.2-1.1 10.4-1.9 15.6-2.2 9.4-.5 17.5 2.4 26.2 9.2 4.2 3.1 7.3 7.6 8.8 12.6 1.2 4.3 1.7 8.7 1.6 13.2 0 4.2-1.3 8.4-3.6 12-.7 1.2-1.7 2.6-2.7 3.9z" fill="#646464"/><path id="Shape-2" class="st1" d="M52.4 42.3h1.7c.9 0 1.7-.7 1.7-1.7 0-.9-.7-1.7-1.7-1.7h-1.7c-2.8 0-5 2.2-5 5v1.7c0 2.8 2.2 5 5 5h1.7c.9 0 1.7-.7 1.7-1.7 0-.9-.7-1.7-1.7-1.7h-1.7c-.9 0-1.7-.7-1.7-1.7V44c.1-.9.8-1.7 1.7-1.7z"/><path id="Shape-3" class="st1" d="M64.1 37.3c-.9 0-1.7.7-1.7 1.7v3.3c0 .9-.7 1.7-1.7 1.7H59c-.9 0-1.7.7-1.7 1.7 0 .9.7 1.7 1.7 1.7h1.7c2.8 0 5-2.2 5-5V39c.1-.9-.7-1.7-1.6-1.7z"/><path id="Shape-4" class="st1" d="M70.8 37.3v-1.7c0-2.8-2.2-5-5-5h-3.3c-2.8 0-5 2.2-5 5v1.7c0 .9.7 1.7 1.7 1.7.9 0 1.7-.7 1.7-1.7v-1.7c0-.9.7-1.7 1.7-1.7h3.3c.9 0 1.7.7 1.7 1.7v1.7c0 .9.7 1.7 1.7 1.7s1.5-.7 1.5-1.7z"/><path id="Shape-5" class="st1" d="M75.8 49h-1.7c-.9 0-1.7-.7-1.7-1.7v-1.7c0-.9-.7-1.7-1.7-1.7-.9 0-1.7.7-1.7 1.7v1.7c0 2.8 2.2 5 5 5h1.7c.9 0 1.7-.7 1.7-1.7 0-.8-.7-1.6-1.6-1.6z"/><path id="Shape-6" class="st1" d="M84.1 44c0-.9-.7-1.7-1.7-1.7h-1.7c-.9 0-1.7-.7-1.7-1.7s.7-1.7 1.7-1.7h1.7c.9 0 1.7-.7 1.7-1.7 0-.9-.7-1.7-1.7-1.7h-1.7c-2.8 0-5 2.2-5 5s2.2 5 5 5h1.7c.9.2 1.7-.6 1.7-1.5z"/><path id="Shape-7" class="st1" d="M89.1 44c-.9 0-1.7.7-1.7 1.7V49c0 .9-.7 1.7-1.7 1.7H84c-.9 0-1.7.7-1.7 1.7 0 .9.7 1.7 1.7 1.7h1.7c2.8 0 5-2.2 5-5v-3.3c.1-1-.7-1.8-1.6-1.8z"/><path id="Shape-8" class="st1" d="M102.4 49s-.1 0 0 0c-.2-3.1-.6-6-1.4-8.9-1.3-4.4-4-8.2-7.7-10.9-7.5-5.9-14.4-8.5-22.2-8.5h-1.9c-.6 0-1.1.1-1.7.1h-.1c-.1 0-.2 0-.3.1-4.4.4-8.8 1.1-13.1 2-1.9.4-3.8.9-5.6 1.5h-.1c-2.7 1-5.3 2.6-7.4 4.6-2 2.2-3.7 4.7-4.8 7.5-.1.1-.1.2-.1.3-.1.3-.2.5-.3.8-.5 1.4-1.3 4.8-1.4 5.3-.4 1.9-1.3 8.3 2.5 12.3 2.4 2.5 6.1 3.5 10.9 2.8l2.2-.3c10.7-1.5 16.1-2.3 20.7 2.2.9.9 1.8 1.8 2.7 2.6-1 3.3-2.4 10.3 3.2 14.5 6 4.5 6 5.7 6 8.7 0 .9.7 1.7 1.7 1.7.3 0 .5-.1.8-.2.4-.2 4.3-2.4 4.3-9.8 0-4.1 3-7.6 6.1-10.6 1.6-1.1 3-2.5 4.2-4.2 1.2-1.9 2.1-4 2.6-6.2.1-.2.1-.4.1-.7.2-1.1.3-2.2.3-3.3-.2-1.2-.2-2.3-.2-3.4zM85.8 77.3c0 1.4-.2 2.8-.6 4.1-.8-1.9-2.6-4-6.7-7.1-3.3-2.5-3.1-6.6-2.4-9.5 3.1 2.5 7 3.9 11 3.9.6 0 1.3 0 1.9-.1-2 2.5-3.1 5.6-3.2 8.7zm10.8-16.5c-1.2 1.7-2.8 3.1-4.7 3.9-3.1 1-6.4.9-9.4-.1v-2.3c0-.9.7-1.7 1.7-1.7h5c.9 0 1.7-.7 1.7-1.7 0-.9-.7-1.7-1.7-1.7h-5c-2.8 0-5 2.2-5 5v.5c-2.2-1.6-4.3-3.4-6.2-5.3-1.9-2-4.4-3.3-7.1-3.9v-1.3c0-.9-.7-1.7-1.7-1.7-.9 0-1.7.7-1.7 1.7v.9c-4.4 0-8.8.4-13.1 1.2l-2.2.3c-1 .1-2 .2-3 .2V54c0-.9-.7-1.7-1.7-1.7s-1.7.7-1.7 1.7v.1c-.6-.3-1.2-.7-1.6-1.2-1-1.1-1.6-2.5-1.8-3.9h1.7c2.8 0 5-2.2 5-5 0-.9-.7-1.7-1.7-1.7s-1.7.7-1.7 1.7-.7 1.7-1.7 1.7h-1.9c0-.7.1-1.4.3-2 .2-.9.8-3.5 1.2-4.6H44c.9 0 1.7-.7 1.7-1.7s-.7-1.7-1.7-1.7h-3.9c.8-1.6 1.9-3 3.1-4.3 1.2-1.2 2.6-2.1 4.1-2.8v2.2c0 2.8 2.2 5 5 5 .9 0 1.7-.7 1.7-1.7s-.7-1.7-1.7-1.7-1.7-.7-1.7-1.7v-3.5c1.3-.4 2.6-.7 4-1 1.4-.3 2.9-.6 4.3-.8v.3c0 .9.7 1.7 1.7 1.7.9 0 1.7-.7 1.7-1.7v-.9c1.1-.2 2.2-.3 3.3-.4v1.3c0 .9.7 1.7 1.7 1.7s1.7-.7 1.7-1.7v-1.6h3.3v6.6c0 .9.7 1.7 1.7 1.7h3.3c.9 0 1.7-.7 1.7-1.7 0-.9-.7-1.7-1.7-1.7h-1.7v-4.6c2.9.5 5.7 1.4 8.4 2.8v5.1c0 .9.7 1.7 1.7 1.7.9 0 1.7-.7 1.7-1.7v-3.2c1.1.7 2.2 1.5 3.3 2.4v4.2c0 .9-.7 1.7-1.7 1.7-.9 0-1.7.7-1.7 1.7s.7 1.7 1.7 1.7c2.8 0 5-2.2 5-5v-1.1c1.7 1.9 2.9 4.1 3.6 6.5.6 2.1.9 4.2 1.1 6.3h-3.1c-.9 0-1.7.7-1.7 1.7s.7 1.7 1.7 1.7h3.3v1.6c0 .5-.1 1.1-.1 1.7h-3.2c-.9 0-1.7.7-1.7 1.7 0 .9.7 1.7 1.7 1.7H98c-.2 1-.8 2.1-1.4 3.2z"/></g></svg>