<svg xmlns="http://www.w3.org/2000/svg" viewBox="0 0 128 128"><path d="M113.799 63.248c-3.2-4.9-7.1-9.2-11.8-12.7-4.7-3.7-9.9-6.6-15.5-8.8-7.2-2.7-14.8-4.2-22.6-4.3h.1c-11.7.1-23.2 3.4-33.2 9.6-.7.4-.9 1.3-.5 2s1.3.9 2 .5c0 0 .1 0 .1-.1 5-3.2 10.4-5.5 16.1-7-11.8 8.6-14.5 25.1-5.9 36.9 1.6 2.3 3.6 4.3 5.9 5.9-7.5-2-14.5-5.4-20.5-10.2-4.1-3.2-7.7-6.9-10.7-11.2 2.7-3.9 6-7.5 9.8-10.5.6-.5.8-1.4.3-2.1-.5-.6-1.4-.8-2.1-.3h-.1c-4.3 3.4-8 7.4-10.9 12-.3.5-.3 1 0 1.5 3.2 4.9 7.1 9.2 11.8 12.7 4.7 3.7 9.9 6.6 15.5 8.8 7.2 2.7 14.8 4.2 22.6 4.3h-.2c2.8 0 6.7-.4 6.7-.4 11.7-1.2 22.8-5.7 32-13.1.6-.5.7-1.4.2-2.1-.5-.6-1.4-.7-2.1-.2-6.2 5.1-13.5 8.7-21.3 10.8 11.8-8.6 14.5-25.1 5.9-36.9-1.6-2.3-3.6-4.3-5.9-5.9 7.5 2 14.5 5.4 20.5 10.2 4.1 3.2 7.7 6.9 10.7 11.2-1.5 2.2-3.2 4.3-5.1 6.2-.6.6-.5 1.5 0 2.1.6.6 1.5.5 2.1 0 2.3-2.3 4.3-4.8 6-7.5.4-.4.4-.9.1-1.4zm-26.3.8c0 13-10.5 23.5-23.5 23.5s-23.5-10.5-23.5-23.5 10.5-23.5 23.5-23.5c13-.1 23.5 10.5 23.5 23.5z" fill="#646464"/><path d="M63.999 48.548c-8.5 0-15.5 6.9-15.5 15.4s6.9 15.5 15.4 15.5 15.5-6.9 15.5-15.4c0-1.2-.1-2.4-.4-3.6 2.7-3.7 1.8-8.8-1.9-11.5-2.9-2.1-6.7-2.1-9.6 0-1.1-.2-2.3-.4-3.5-.4zm0 28c-6.9.1-12.6-5.5-12.6-12.4-.1-6.9 5.5-12.6 12.4-12.6h.3c.4 0 .8 0 1.2.1-2.3 3.9-.9 9 3 11.2 2.5 1.5 5.7 1.5 8.2 0 0 .4.1.8.1 1.2-.1 6.9-5.7 12.4-12.6 12.5zm12.3-17.4c-2 2-5.3 2-7.3 0s-2-5.3 0-7.3 5.3-2 7.3 0 2 5.3 0 7.3z" fill="#1c499c"/></svg>