<svg xmlns="http://www.w3.org/2000/svg" viewBox="0 0 128 128"><path d="M102.6 54.4c-1-1.6-1.7-3.5-2-5.4 0-3.7-2.6-7-7.8-9.9 2.5-2.5 4.5-4.9 4.5-8.4C97.3 19.8 87 14 77.3 14c-6.8 0-8.2 4.9-9.2 8.4-1 3.6-1.6 4.9-4.1 4.9-2.5 0-3.1-1.3-4.1-4.9-1-3.6-2.4-8.4-9.2-8.4-9.7 0-20 5.8-20 16.7 0 3.5 2 5.9 4.5 8.4-5.2 2.9-7.8 6.2-7.8 9.9-.3 1.9-.9 3.8-2 5.4-3.1 5.5-4.7 11.7-4.7 17.9 0 4.6 1.1 9.1 3.3 13.1.9 1.6 1.5 3.4 1.7 5.2 0 5.6 4.5 23.3 15 23.3 3.6-.1 7.2-.8 10.6-2.1.8 1.3 2.2 2.1 3.7 2.1h18.1c1.5 0 2.9-.8 3.7-2.1 3.4 1.3 7 2 10.6 2.1 10.5 0 15-17.7 15-23.3.2-1.8.8-3.6 1.7-5.2 2.2-4 3.3-8.5 3.3-13.1-.1-6.2-1.7-12.4-4.8-17.9zM34 30.7c0-8.7 8.6-13.3 16.7-13.3 4.1 0 4.9 2.2 6 6 .9 3.1 2.1 7.3 7.3 7.3s6.4-4.2 7.3-7.3c1.1-3.8 1.9-6 6-6C85.4 17.3 94 22 94 30.7c0 2.7-2 4.6-4.9 7.4l-.2.2c-.3.3-.7.6-1 1-.9.8-1.8 1.7-2.7 2.7-.3.3-.6.7-.9 1.1l-.1.1c-.2.2-.3.4-.5.6l-.2.3c-.3.3-.5.7-.8 1-1.2 1.7-2.3 3.4-3.3 5.3l-.1-.1c-.3-.2-.6-.5-1-.7l-.1-.1c-.3-.2-.7-.4-1.1-.7l-.3-.2c-.4-.2-.9-.5-1.4-.7l-.3-.1c-.4-.2-.9-.4-1.4-.6l-.3-.1c-.6-.2-1.1-.4-1.8-.6-.1 0-.3-.1-.4-.1-.6-.2-1.2-.3-1.8-.4-.1 0-.2 0-.3-.1-.7-.1-1.4-.2-2.2-.3h-.5c-.8-.1-1.6-.1-2.5-.1s-1.7 0-2.5.1h-.5c-.8.1-1.5.2-2.2.3-.1 0-.2 0-.3.1-.6.1-1.2.3-1.8.4-.1 0-.3.1-.4.1l-1.8.6c-.1 0-.2.1-.3.1-.5.2-.9.4-1.4.6l-.3.1c-.5.2-.9.5-1.4.7l-.3.2c-.4.2-.7.4-1.1.7l-.1.1c-.4.2-.7.5-1 .7l-.1.1c-.7-1.4-1.5-2.7-2.3-4v-.1c-.2-.4-.5-.7-.7-1.1-.1-.1-.2-.3-.3-.4-.1-.2-.3-.4-.5-.6-.2-.2-.3-.4-.5-.7-1.3-1.6-2.7-3-4.1-4.4l-1-1-.2-.2C36 35.3 34 33.4 34 30.7zm43.9 22.9c-1 2.5-1.8 5.1-2.4 7.8-1.5-.7-3.2-1.2-4.8-1.6l-.3-.1c-.4-.1-.7-.2-1.1-.2-.2 0-.4-.1-.6-.1-.3-.1-.7-.1-1-.1-.2 0-.4 0-.6-.1h-.5c-.3 0-.5-.1-.8-.1-.6 0-1.3-.1-2-.1s-1.3 0-2 .1c-.3 0-.5 0-.8.1H60.7h-.1c-.2 0-.4 0-.6.1-.3 0-.7.1-1 .1-.2 0-.4.1-.6.1-.4.1-.8.1-1.1.2l-.3.1c-1.7.4-3.3.9-4.8 1.6-.6-2.7-1.4-5.3-2.4-7.8.3-.2.6-.5.9-.7.1-.1.2-.1.3-.2.3-.2.6-.4 1-.6.2-.1.3-.2.5-.3.3-.2.6-.4 1-.5.2-.1.5-.2.7-.3.4-.2.7-.3 1.1-.5.3-.1.5-.2.8-.3.4-.1.9-.3 1.3-.4.3-.1.6-.2.9-.2.5-.1 1.1-.2 1.7-.3.3 0 .6-.1.9-.1 1.9-.2 3.8-.2 5.7 0 .3 0 .6.1.9.1.6.1 1.1.2 1.7.3.3.1.6.1.9.2.5.1.9.2 1.3.4.3.1.5.2.8.3.4.1.8.3 1.1.5.2.1.5.2.7.3.4.2.7.4 1 .5.2.1.4.2.5.3.3.2.7.4 1 .6.1.1.2.1.3.2.5.2.9.5 1.1.7zM74 109.7c0 .5-.4.9-1 1H55c-.5 0-1-.4-1-1v-5.2c.2 0 .3.1.5.1.3.1.7.1 1 .2l1.8.3c.4.1.7.1 1.1.2.6.1 1.2.1 1.7.2.4 0 .7.1 1.1.1.7 0 1.3.1 2 .1h1.4c.7 0 1.3 0 2-.1.4 0 .7-.1 1.1-.1.6-.1 1.2-.1 1.7-.2.4 0 .7-.1 1.1-.2l1.8-.3c.3-.1.7-.1 1-.2.2 0 .3-.1.5-.1l.2 5.2zm0-8.6c-.3.1-.6.2-.9.2-.4.1-.7.2-1.1.2-.6.1-1.1.2-1.7.3-.3.1-.7.1-1 .2-.6.1-1.3.1-1.9.2-.2 0-.5.1-.7.1-1.8.1-3.6.1-5.4 0-.2 0-.5 0-.7-.1-.6-.1-1.3-.1-1.9-.2-.3 0-.7-.1-1-.2-.6-.1-1.1-.2-1.7-.3-.4-.1-.7-.2-1.1-.2-.3-.1-.6-.1-.9-.2v-5.5h.1c1.5.5 3 1 4.5 1.2.2 0 .4.1.6.1.6.1 1.1.2 1.7.2.2 0 .4 0 .7.1.8.1 1.6.1 2.4.1s1.6 0 2.4-.1c.2 0 .4 0 .7-.1.6-.1 1.2-.1 1.7-.2.2 0 .4-.1.6-.1 1.5-.3 3-.7 4.5-1.2h.1v5.5zM101 84c-1.2 2-1.9 4.3-2 6.7 0 4.8-4.3 20-11.7 20-3.4-.1-6.8-.8-10-2.1V95.5c1.8 1.6 4.2 2.5 6.7 2.4.9 0 1.7-.7 1.7-1.7s-.7-1.7-1.7-1.7c-1.7.1-3.4-.5-4.7-1.7.9-.6 1.8-1.3 2.6-2.1.6-.7.6-1.7-.1-2.4-.7-.6-1.7-.6-2.4.1-1.3 1.3-2.8 2.3-4.5 3.1-.8.4-1.6.7-2.5 1h-.1c-.8.3-1.6.5-2.4.7-.1 0-.3.1-.4.1-.8.2-1.6.3-2.4.4-.2 0-.4 0-.5.1-.8.1-1.7.2-2.6.2-.9 0-1.8-.1-2.7-.1h-.4c-.9-.1-1.7-.2-2.5-.4h-.2c-1.8-.4-3.5-1-5.1-1.8H53c-1.6-.8-3.1-1.8-4.4-3.1-.6-.7-1.7-.7-2.4-.1s-.7 1.7-.1 2.4c.8.8 1.6 1.5 2.5 2.1-1.2 1.2-2.9 1.8-4.6 1.7-.9 0-1.7.7-1.7 1.7 0 .9.7 1.7 1.7 1.7 2.4.1 4.8-.8 6.7-2.4v13.1c-3.2 1.2-6.6 2-10 2.1-7.4 0-11.7-15.2-11.7-20-.2-2.3-.8-4.6-2-6.7-2-3.6-3-7.6-3-11.7 0-5.8 1.5-11.4 4.3-16.4 1.3-2.1 2.1-4.5 2.3-6.9 0-2.6 2.3-5.1 7-7.5l.1.1.8.8.9.9.3.3c.2.2.4.5.6.7l.3.3c.2.3.5.6.7.9l.2.2c2 2.4 3.6 5.2 4.9 8.1.3.7.6 1.5.9 2.2.1.2.2.5.2.7.2.5.3.9.5 1.4.1.4.2.8.4 1.2.1.2.1.4.2.6-1.5-.7-3.1-1.1-4.7-1-.9 0-1.7.7-1.7 1.7 0 .9.7 1.7 1.7 1.7 1.6-.1 3.1.4 4.3 1.4-.8.6-1.5 1.2-2.2 1.9-.6.7-.6 1.7.1 2.4.7.6 1.7.6 2.4-.1 1-1 2.2-1.9 3.5-2.6 1.5-.8 3.1-1.5 4.8-2 .5-.1.9-.3 1.4-.4h.5c.4-.1.8-.1 1.2-.2h.3c.2 0 .4 0 .5-.1.3 0 .6-.1.9-.1h.4c.6 0 1.3-.1 2-.1s1.3 0 2 .1h.3c.4 0 .7.1 1 .1.2 0 .4 0 .6.1h.1c.5.1.9.2 1.3.2.1 0 .2 0 .3.1 2.2.5 4.4 1.3 6.4 2.4h.1c1.2.7 2.4 1.5 3.4 2.5.6.7 1.7.7 2.4.1s.7-1.7.1-2.4c-.7-.7-1.4-1.3-2.2-1.9 1.2-1 2.7-1.5 4.3-1.4.9 0 1.7-.7 1.7-1.7 0-.9-.7-1.7-1.7-1.7-1.6 0-3.2.3-4.7 1 .1-.2.1-.4.2-.6.1-.4.2-.8.4-1.2.1-.5.3-.9.5-1.4.1-.2.2-.5.2-.7.3-.7.6-1.5.9-2.2v-.1c.5-1.2 1.2-2.5 1.8-3.6l.1-.1.9-1.5.1-.1c.6-1 1.3-1.8 1.9-2.6.1-.1.2-.2.3-.4.2-.3.4-.5.6-.7.1-.1.2-.3.4-.4l.6-.6c.1-.1.2-.2.3-.4l.9-.9.8-.8.1-.1c4.7 2.4 7 4.9 7 7.5.2 2.5 1 4.8 2.3 6.9 2.9 5 4.4 10.7 4.4 16.4-.1 3.9-1.1 7.9-3.1 11.5z" fill="#646464"/></svg>