<svg version="1.1" id="Layer_1" xmlns="http://www.w3.org/2000/svg" x="0" y="0" viewBox="0 0 128 128" xml:space="preserve"><style>.st0{fill:#1c499c}</style><g id="_2916928" transform="translate(-1.506)"><path id="Path_17269" class="st0" d="M52.8 29.6c-5.3 0-9.6 4.4-9.6 9.7 0 5.3 4.4 9.6 9.7 9.6 5.3 0 9.6-4.4 9.6-9.7.1-5.3-4.3-9.6-9.7-9.6zm0 16.6c-3.8 0-6.9-3.1-6.9-7 0-3.8 3.1-6.9 7-6.9 3.8 0 6.9 3.1 6.9 6.9 0 3.9-3.1 7-7 7z"/><path id="Path_17270" class="st0" d="M52.8 23.3c-8.8-.1-16 7-16 15.8-.1 7.1 4.6 13.4 11.5 15.4v3.1h-7c-.8 0-1.4.6-1.4 1.4v6.2c0 .4.1.7.4 1 .3.3.6.4 1 .4h7v7c0 .8.6 1.4 1.4 1.4H56c.8 0 1.4-.6 1.4-1.4v-7h7c.4 0 .7-.1 1-.4.3-.3.4-.6.4-1V59c0-.8-.6-1.4-1.4-1.4h-7v-3.1c8.4-2.4 13.3-11.2 10.9-19.7-2-6.8-8.3-11.5-15.5-11.5zm2.9 28.8c-.6.1-1.1.7-1.1 1.3V59c0 .4.1.7.4 1 .3.3.6.4 1 .4h7v3.5h-7c-.8 0-1.4.6-1.4 1.4v7h-3.5v-7c0-.8-.6-1.4-1.4-1.4h-7v-3.5h7c.4 0 .7-.1 1-.4.3-.3.4-.6.4-1v-5.5c0-.6-.5-1.2-1.1-1.3-7.2-1.6-11.7-8.6-10.1-15.8 1.6-7.2 8.6-11.7 15.8-10.1S67.4 34.9 65.8 42c-1.1 5.1-5.1 9-10.1 10.1z"/><path id="Path_17271" class="st0" d="M105.4 68.7h-7.1v-7.1c0-.4-.1-.7-.4-1-.3-.3-.6-.4-1-.4h-6.3c-.8 0-1.4.6-1.4 1.4v7.1H82c-.8 0-1.4.6-1.4 1.4v6.3c0 .8.6 1.4 1.4 1.4h7.1v7.1c0 .8.6 1.4 1.4 1.4h6.3c.4 0 .7-.1 1-.4.3-.3.4-.6.4-1v-7.1h7.1c.4 0 .7-.1 1-.4.3-.3.4-.6.4-1V70c0-.7-.6-1.3-1.3-1.3zm-1.4 6.2h-7.1c-.8 0-1.4.6-1.4 1.4v7.1H92v-7.1c0-.8-.6-1.4-1.4-1.4h-7.1v-3.5h7.1c.4 0 .7-.1 1-.4.3-.3.4-.6.4-1v-7.1h3.5V70c0 .8.6 1.4 1.4 1.4h7.1v3.5z"/><path id="Path_17272" d="M93.7 52.4c-4.1 0-8.1 1.2-11.5 3.5-4.8-9.4-5.7-20.4-2.6-30.5l3-9.6c.1-.4.1-.9-.2-1.2-.3-.4-.7-.6-1.1-.6H24.4c-.4 0-.8.2-1.1.6-.3.3-.3.8-.2 1.2l3 9.6c3.4 10.9 2 22.8-3.8 32.7-5.1 8.7-7 18.9-5.5 28.8l4.2 26c.1.7.7 1.2 1.4 1.2h60.9c.7 0 1.2-.5 1.4-1.2l3.2-19.8c7.9 2.3 16.3-.1 21.7-6.3 5.4-6.1 6.6-14.9 3.2-22.3-3.5-7.4-10.9-12.1-19.1-12.1zm-11.6 58.9H54.2V87.8c7.1-1 13.3-9.6 13.6-10 .4-.6.3-1.5-.3-1.9-.6-.4-1.5-.3-1.9.3-.1.1-6.5 8.9-12.7 8.9s-12.7-8.9-12.7-8.9c-.4-.6-1.3-.8-1.9-.3-.6.4-.8 1.3-.3 1.9.3.4 6.5 9 13.6 10v23.4h-28l-4-24.8c-1.5-9.3.3-18.9 5.1-27 6.2-10.5 7.7-23.2 4-34.9l-2.4-7.8h53.1l-2.5 7.8c-3.4 11-2.3 22.8 3 33-8.6 7.5-9.6 20.5-2.1 29.2 2 2.3 4.5 4.2 7.3 5.4l-3 19.2zm11.6-20.1c-10-.1-18-8.2-17.9-18.2S84 55 93.9 55.1c9.9.1 17.9 8.1 17.9 18.1 0 10-8.1 18-18.1 18z" fill="#646464"/></g></svg>