<?xml version="1.0" encoding="utf-8"?>
<!-- Generator: Adobe Illustrator 24.0.3, SVG Export Plug-In . SVG Version: 6.00 Build 0)  -->
<svg version="1.1" id="Layer_1" xmlns="http://www.w3.org/2000/svg" xmlns:xlink="http://www.w3.org/1999/xlink" x="0px" y="0px"
	 viewBox="0 0 32 32" style="enable-background:new 0 0 32 32;" xml:space="preserve">
<path d="M20.52,16L31.06,5.46c1.25-1.25,1.25-3.27,0-4.52s-3.27-1.25-4.52,0L16,11.47L5.46,0.94c-1.25-1.25-3.28-1.25-4.53,0
	s-1.25,3.27,0,4.52L11.48,16L0.94,26.54c-1.25,1.25-1.25,3.28,0,4.53C1.56,31.69,2.38,32,3.2,32s1.64-0.31,2.26-0.94L16,20.53
	l10.54,10.54C27.16,31.69,27.98,32,28.8,32c0.82,0,1.64-0.31,2.26-0.94c1.25-1.25,1.25-3.28,0-4.53L20.52,16z"/>
</svg>
