<?xml version="1.0" encoding="utf-8"?>
<!-- Generator: Adobe Illustrator 24.0.3, SVG Export Plug-In . SVG Version: 6.00 Build 0)  -->
<svg version="1.1" id="Layer_1" xmlns="http://www.w3.org/2000/svg" xmlns:xlink="http://www.w3.org/1999/xlink" x="0px" y="0px"
	 viewBox="0 0 32 32" style="enable-background:new 0 0 32 32;" xml:space="preserve">
<g id="post-linkedin" transform="translate(0 0)">
	<path id="Path_79" d="M28.8,0H3.2C1.43,0.01,0.01,1.43,0,3.2v25.6c0.01,1.77,1.43,3.19,3.2,3.2h25.6c1.77-0.01,3.19-1.43,3.2-3.2
		V3.2C31.99,1.43,30.57,0.01,28.8,0z M9.6,27.2H4.8V12.8h4.8V27.2z M7.2,10.08c-1.59,0-2.88-1.29-2.88-2.88
		c0-1.59,1.29-2.88,2.88-2.88c1.59,0,2.88,1.29,2.88,2.88v0c0.01,1.58-1.27,2.87-2.86,2.88C7.22,10.08,7.21,10.08,7.2,10.08z
		 M27.2,27.2h-4.8v-8.48c0-1.33-1.07-2.4-2.4-2.4c-1.33,0-2.4,1.07-2.4,2.4v8.48h-4.8V12.8h4.8v1.92c0.91-1.33,2.39-2.16,4-2.24
		c3.08,0.04,5.56,2.52,5.6,5.6L27.2,27.2z"/>
</g>
</svg>
