<?xml version="1.0" encoding="utf-8"?>
<!-- Generator: Adobe Illustrator 24.0.3, SVG Export Plug-In . SVG Version: 6.00 Build 0)  -->
<svg version="1.1" id="Layer_1" xmlns="http://www.w3.org/2000/svg" xmlns:xlink="http://www.w3.org/1999/xlink" x="0px" y="0px"
	 viewBox="0 0 32 32" style="enable-background:new 0 0 32 32;" xml:space="preserve">
<g id="Group_63" transform="translate(-594 -3908.568)">
	<path id="Path_86" d="M609.23,3921.2c0.01,0.67-0.22,1.31-0.65,1.82c-0.5,0.55-1.15,0.93-1.87,1.1v0.05
		c1.9,0.24,2.85,1.14,2.85,2.7c0.03,0.99-0.44,1.93-1.26,2.5c-1.04,0.66-2.26,0.98-3.49,0.91c-0.57,0-1.14-0.04-1.7-0.13
		c-0.58-0.1-1.15-0.27-1.69-0.48v-2.56c0.48,0.25,0.99,0.44,1.52,0.56c0.47,0.12,0.95,0.18,1.43,0.18c0.51,0.04,1.02-0.06,1.48-0.28
		c0.31-0.19,0.49-0.53,0.46-0.89c0.02-0.26-0.07-0.52-0.24-0.72c-0.22-0.2-0.49-0.33-0.78-0.38c-0.46-0.1-0.93-0.14-1.4-0.13h-0.7
		v-2.31h0.72c1.56,0,2.34-0.4,2.34-1.2c0.02-0.27-0.12-0.53-0.35-0.67c-0.28-0.16-0.61-0.23-0.93-0.22
		c-0.81,0.03-1.59,0.28-2.26,0.73l-1.28-2.06c0.56-0.4,1.19-0.7,1.85-0.89c0.71-0.19,1.44-0.28,2.17-0.26
		c0.97-0.05,1.94,0.19,2.77,0.7C608.87,3919.69,609.25,3920.42,609.23,3921.2z M615.39,3922.65c0.62-0.01,1.23,0.15,1.77,0.46
		c0.53,0.3,0.95,0.75,1.23,1.29c0.3,0.6,0.45,1.26,0.44,1.92c0.07,1.1-0.35,2.17-1.15,2.93c-0.77,0.68-1.93,1.02-3.48,1.02
		c-1.12,0.04-2.23-0.17-3.25-0.62v-2.52c0.49,0.22,1.01,0.39,1.53,0.51c0.48,0.12,0.97,0.19,1.47,0.2c0.47,0.03,0.93-0.1,1.32-0.36
		c0.32-0.26,0.49-0.66,0.46-1.07c0.02-0.4-0.16-0.78-0.47-1.02c-0.42-0.27-0.92-0.4-1.42-0.37c-0.53,0.01-1.06,0.1-1.57,0.27
		l-1.13-0.56l0.43-6.01h6.5v2.56h-3.88l-0.14,1.5c0.29-0.06,0.57-0.1,0.87-0.13C615.09,3922.66,615.24,3922.65,615.39,3922.65z"/>
	<g id="tick-inside-circle" transform="translate(594 3908.568)">
		<g id="check-circle-outline">
			<path id="Path_84" d="M28.8,16c0,7.07-5.73,12.8-12.8,12.8S3.2,23.07,3.2,16S8.93,3.2,16,3.2c0,0,0,0,0,0
				c1.19-0.01,2.38,0.15,3.52,0.48l2.56-2.56C20.13,0.43,18.07,0.05,16,0C7.16,0,0,7.16,0,16s7.16,16,16,16s16-7.16,16-16H28.8z"/>
		</g>
	</g>
</g>
</svg>
