<?xml version="1.0" encoding="utf-8"?>
<!-- Generator: Adobe Illustrator 24.0.3, SVG Export Plug-In . SVG Version: 6.00 Build 0)  -->
<svg version="1.1" id="Layer_1" xmlns="http://www.w3.org/2000/svg" xmlns:xlink="http://www.w3.org/1999/xlink" x="0px" y="0px"
	 viewBox="0 0 32 32" style="enable-background:new 0 0 32 32;" xml:space="preserve">
<g id="Group_131">
	<g id="Group_130">
		<path id="Path_139" d="M31.09,26.61l-4.49-4.49c1.48-2.29,2.26-4.96,2.24-7.69C28.85,6.46,22.39,0,14.42,0S0,6.46,0,14.42
			c0,7.97,6.46,14.42,14.42,14.42c2.73,0.02,5.4-0.76,7.69-2.24l4.49,4.49c1.25,1.23,3.26,1.21,4.49-0.05
			C32.3,29.81,32.3,27.84,31.09,26.61z M14.42,25.64c-6.2,0-11.22-5.02-11.22-11.22S8.23,3.21,14.42,3.21s11.22,5.02,11.22,11.22
			c0.04,6.16-4.92,11.18-11.08,11.22C14.52,25.64,14.47,25.64,14.42,25.64z"/>
	</g>
</g>
<g id="Group_133" transform="translate(6.4 6.4)">
	<g id="Group_132">
		<path id="Path_140" d="M14.44,6.42H9.63V1.61c0.05-0.83-0.59-1.55-1.42-1.6c-0.06,0-0.12,0-0.18,0c-0.89,0-1.6,0.72-1.6,1.6v4.81
			H1.61c-0.89,0-1.6,0.72-1.6,1.6c-0.05,0.83,0.59,1.55,1.42,1.6c0.06,0,0.12,0,0.18,0h4.81v4.81c0,0.89,0.72,1.6,1.6,1.6
			c0.89,0,1.6-0.72,1.6-1.6c0,0,0,0,0,0V9.63h4.81c0.83,0.05,1.55-0.59,1.6-1.42c0-0.06,0-0.12,0-0.18
			C16.04,7.14,15.32,6.42,14.44,6.42z"/>
	</g>
</g>
</svg>
