<?xml version="1.0" encoding="utf-8"?>
<!-- Generator: Adobe Illustrator 24.0.3, SVG Export Plug-In . SVG Version: 6.00 Build 0)  -->
<svg version="1.1" id="Layer_1" xmlns="http://www.w3.org/2000/svg" xmlns:xlink="http://www.w3.org/1999/xlink" x="0px" y="0px"
	 viewBox="0 0 128 128" style="enable-background:new 0 0 128 128;" xml:space="preserve">
<style type="text/css">
	.st0{fill:#646464;}
</style>
<g id="ziolo" transform="translate(-550.999 87)">
	<g id="Group_21" transform="translate(550.999 -87)">
		<path id="Path_41" class="st0" d="M71.5,89C81.3,88.5,89,80.5,89,70.7c0-0.9-0.7-1.7-1.7-1.7l0,0c-9.9,0-17.9,7.8-18.3,17.6
			c-0.9,1-2.1,1.8-3.4,2.1V70.5c2.2-0.4,4.3-1.5,5.8-3.2C81.3,66.9,89,58.8,89,49c0-0.9-0.7-1.7-1.7-1.7l0,0
			c-9.9,0-17.9,7.8-18.3,17.6c-0.9,1-2.1,1.8-3.4,2.1V49.3c9.3-9.8,9.1-25.3-0.5-34.8c-0.7-0.7-1.7-0.7-2.4,0
			c-9.6,9.6-9.8,25-0.5,34.8v17.8C61,66.8,59.8,66,59,65c-0.4-9.8-8.4-17.6-18.3-17.6c-0.9,0-1.7,0.7-1.7,1.7
			c0,9.8,7.7,17.9,17.5,18.3c1.5,1.7,3.6,2.8,5.8,3.2v18.3c-1.3-0.3-2.5-1.1-3.4-2.1C58.6,76.8,50.5,69,40.7,69
			c-0.9,0-1.7,0.7-1.7,1.7c0,9.8,7.7,17.9,17.5,18.3c1.5,1.7,3.6,2.8,5.8,3.2v18.3c-1.3-0.3-2.5-1.1-3.4-2.1
			c-0.4-9.8-8.4-17.6-18.3-17.6c-0.9,0-1.7,0.7-1.7,1.7c0,9.8,7.7,17.9,17.5,18.3c3.6,4.1,9.9,4.5,14.1,0.9c0.3-0.3,0.6-0.6,0.9-0.9
			c9.8-0.4,17.5-8.5,17.5-18.3c0-0.9-0.7-1.7-1.7-1.7l0,0c-9.9,0-17.9,7.8-18.3,17.6c-0.9,1-2.1,1.8-3.4,2.1V92.2
			C67.9,91.8,70,90.7,71.5,89z M85.6,72.4L85.6,72.4c-0.8,6.9-6.2,12.3-13.1,13.1C73.3,78.7,78.7,73.3,85.6,72.4z M85.6,50.8
			L85.6,50.8c-0.8,6.9-6.2,12.3-13.1,13.1C73.3,57,78.7,51.6,85.6,50.8L85.6,50.8z M42.4,50.8c6.9,0.8,12.3,6.2,13.1,13.1
			C48.7,63.1,43.3,57.6,42.4,50.8L42.4,50.8z M42.4,72.4c6.9,0.8,12.3,6.2,13.1,13.1C48.7,84.7,43.3,79.3,42.4,72.4z M42.4,94.1
			c6.9,0.8,12.3,6.2,13.1,13.1C48.7,106.4,43.3,101,42.4,94.1L42.4,94.1z M85.6,94.1L85.6,94.1c-0.8,6.9-6.2,12.3-13.1,13.1
			C73.3,100.4,78.7,94.9,85.6,94.1L85.6,94.1z M64,46.2c-6.9-8.1-6.9-20,0-28.1C70.9,26.2,70.9,38.1,64,46.2z"/>
	</g>
</g>
</svg>
