<?xml version="1.0" encoding="utf-8"?>
<!-- Generator: Adobe Illustrator 24.0.3, SVG Export Plug-In . SVG Version: 6.00 Build 0)  -->
<svg version="1.1" id="Layer_1" xmlns="http://www.w3.org/2000/svg" xmlns:xlink="http://www.w3.org/1999/xlink" x="0px" y="0px"
	 viewBox="0 0 128 128" style="enable-background:new 0 0 128 128;" xml:space="preserve">
<style type="text/css">
	.st0{fill:#646464;}
	.st1{fill:#0049A5;}
</style>
<g id="recepta1" transform="translate(0 0)">
	<g id="Group_1" transform="translate(0 0)">
		<path id="Path_12" class="st0" d="M91.5,14h-6.9c-0.8,0-1.5,0.6-1.5,1.4c0,0.8,0.6,1.5,1.4,1.5c0,0,0.1,0,0.1,0h6.9
			c1.2,0,2.1,0.9,2.1,2.1V109c0,1.2-0.9,2.1-2.1,2.1h-41c-0.8,0-1.4,0.7-1.4,1.5c0,0.8,0.6,1.4,1.4,1.4h41c2.8,0,5-2.3,5-5V19
			C96.5,16.3,94.3,14,91.5,14z"/>
		<path id="Path_13" class="st0" d="M43.6,111.1h-7.1c-1.2,0-2.1-0.9-2.1-2.1v-81l8.5,0l0,0c1.6,0,2.8-1.3,2.8-2.8l0-8.2h32.1
			c0.8,0,1.5-0.6,1.5-1.4S78.8,14,77.9,14c0,0-0.1,0-0.1,0H44.3c-0.4,0-0.7,0.2-1,0.4l-11.3,11c-0.3,0.3-0.4,0.7-0.4,1.1V109
			c0,2.8,2.2,5,5,5h7.1c0.8,0,1.4-0.7,1.4-1.5C45,111.7,44.4,111.1,43.6,111.1z M41.8,19.9l1-1l0,6.1l-6.2,0L41.8,19.9z"/>
		<path id="Path_14" class="st0" d="M62.5,29.4c-0.1-3.1-2.6-5.5-5.6-5.4h-4.1c-0.8,0-1.5,0.7-1.5,1.5v0v15.2c0,0.8,0.7,1.4,1.5,1.4
			c0.8,0,1.4-0.6,1.4-1.4v-5.5l5.7,6.4c0.5,0.6,1.4,0.7,2.1,0.2c0.6-0.5,0.7-1.4,0.2-2.1c0,0,0,0,0,0l-4.4-5
			C60.5,34.3,62.5,32.1,62.5,29.4z M56.9,31.9c-0.6,0-1.7,0-2.6,0c0-0.9,0-1.9,0-2.5c0-0.5,0-1.6,0-2.5h2.6c1.4-0.1,2.6,1,2.6,2.3
			c0.1,1.4-1,2.6-2.3,2.6C57.1,31.9,57,31.9,56.9,31.9L56.9,31.9z"/>
		<path id="Path_15" class="st0" d="M63.2,49c0.6,0.5,1.6,0.4,2.1-0.3c0,0,0,0,0,0l3.2-4.3l3.4,4.5c0.5,0.6,1.4,0.7,2.1,0.2
			c0.6-0.5,0.7-1.4,0.3-2L70.4,42l3.3-4.4c0.5-0.6,0.4-1.6-0.3-2.1c-0.6-0.5-1.6-0.4-2.1,0.3l-2.8,3.7l-2.8-3.7
			c-0.5-0.6-1.4-0.7-2.1-0.2c-0.6,0.5-0.7,1.3-0.3,2l3.3,4.4l-3.7,5C62.5,47.6,62.6,48.5,63.2,49z"/>
		<path id="Path_16" class="st0" d="M84.4,55.1H41.6c-0.8,0-1.5,0.6-1.5,1.4c0,0.8,0.6,1.5,1.4,1.5c0,0,0.1,0,0.1,0h42.8
			c0.8,0,1.5-0.6,1.5-1.4C85.9,55.8,85.3,55.1,84.4,55.1C84.4,55.1,84.4,55.1,84.4,55.1L84.4,55.1z"/>
		<path id="Path_17" class="st0" d="M41.6,66.2h42.8c0.8,0,1.5-0.6,1.5-1.4c0-0.8-0.6-1.5-1.4-1.5c0,0-0.1,0-0.1,0H41.6
			c-0.8,0-1.5,0.6-1.5,1.4C40,65.5,40.7,66.2,41.6,66.2C41.5,66.2,41.5,66.2,41.6,66.2z"/>
		<path id="Path_18" class="st0" d="M41.6,74.5h27.5c0.8,0,1.4-0.7,1.4-1.5c0-0.8-0.6-1.4-1.4-1.4H41.6c-0.8,0-1.4,0.7-1.4,1.5
			C40.2,73.9,40.8,74.5,41.6,74.5z"/>
		<path id="Path_19" class="st1" d="M70.8,100.3c0.5,1.1,1.7,1.7,2.9,1.6c0.8-0.1,1.6-0.4,2.2-1c0.7-0.6,1.4-1.2,2-1.9
			c1,1.6,2.8,2.6,4.7,2.4c1.8-0.2,3.5-1,4.7-2.3c0.6-0.5,0.6-1.5,0.1-2.1c-0.5-0.6-1.5-0.6-2.1-0.1c0,0,0,0-0.1,0
			c-0.8,0.8-1.8,1.3-2.9,1.5c-0.8,0.1-1.7-0.3-2.1-1.1c-0.2-0.9-0.1-1.8,0.3-2.6c0.2-0.8-0.2-1.6-1-1.8c-0.7-0.2-1.4,0.1-1.7,0.8
			c-0.9,1.9-2.3,3.6-3.9,4.9c-0.4,0.3-0.5,0.4-0.6,0.4c-0.1,0-0.1,0-0.2,0c0-1.2,0.2-2.4,0.8-3.5c0.5-1.3,1.1-2.5,1.9-3.6
			c0.5-0.6,0.4-1.5-0.2-2.1c-0.6-0.5-1.5-0.5-2,0.1l0,0c-2.7,3-5.6,5.8-8.8,8.3c2.2-5.1,4.6-10.1,7.2-15c0.4-0.7,0.1-1.6-0.7-2
			c-0.7-0.3-1.6-0.1-1.9,0.6c-3.4,6.6-6.5,13.4-9.4,20.2c-0.3,0.7,0,1.6,0.8,1.9c0.5,0.2,1,0.1,1.4-0.1c2.9-2,5.6-4.1,8.2-6.4
			C70.3,98.4,70.4,99.4,70.8,100.3L70.8,100.3z"/>
	</g>
</g>
</svg>
