<svg version="1.1" id="Layer_1" xmlns="http://www.w3.org/2000/svg" x="0" y="0" viewBox="0 0 128 128" xml:space="preserve"><style>.st0{fill:#646464}</style><g id="_847190z" transform="translate(0 -.66)"><g id="Group_17807" transform="translate(0 2.11)"><g id="Group_17806"><path id="Path_17205" class="st0" d="M74 35.8c-7.5-5.5-9.2-18.1-9.2-18.3 0-1.1-1-2.1-2.1-2-1.1 0-2.1 1-2 2.1v.4c.1.6 1.8 14 10.2 20.6-.4 1.2-1 2.3-1.6 3.4-.3.5-.5.9-.7 1.3 0 0 0 .1-.1.1-.4 1.2-.8 2.3-1.2 3.5-1.1 4-2.8 7.8-5 11.4-2.6 3.8-5.8 7.3-9.4 10.1-2 1.3-4.1 2.4-6.2 3.3-2.1.9-4.2 1.9-6.2 3.1-1.1.7-2.1 1.5-3.1 2.3-1.7 1.7-3.8 2.8-6.1 3.3-.4 0-.7.1-1.1.1-2.6 0-5.1.7-7.4 1.9-9.1 5.4-8.9 17.8-8.8 23.8 0 1.1.9 2 2.1 2 1.1 0 2-.9 2-2.1-.1-8.3.6-16.5 6.8-20.1 1.8-.9 3.7-1.4 5.7-1.4.4 0 .8-.1 1.2-.1 3.1-.5 6-2 8.3-4.2.9-.7 1.8-1.4 2.7-2 1.8-1.1 3.7-2.1 5.7-2.9 2.4-1 4.7-2.2 6.9-3.6 4-3.2 7.6-6.9 10.5-11.1 2.4-3.9 4.3-8 5.5-12.4.4-1.1.7-2.2 1.1-3.3.1-.2.3-.5.5-.9 1.4-2.7 3.5-6.3 1-8.3z"/></g></g><g id="Group_17809" transform="translate(5.132 .66)"><g id="Group_17808"><path id="Path_17206" class="st0" d="M104.1 44c-3.8-7.6-11.2-12.8-19.7-13.8h-.1c-.5 0-1-.1-1.5-.1-.8.1-1.6-.1-2.3-.3h-.1c-1.7-.9-8.2-8.4-8.5-13.7-.1-1.1-1.1-2-2.2-1.9-1.1.1-2 1.1-1.9 2.2.4 6.9 7.7 15.3 10.6 17 1.4.7 2.9 1 4.4.9.4 0 .8 0 1.2.1 7.1.8 13.3 5.2 16.5 11.7 3.2 6.5 4.7 13.7 4.3 20.9-.8 19.7-10.6 34-27.5 40.3-4.8 1.8-21.5 5.4-34.9-1.5-2.9-1.6-5.3-3.8-7.2-6.5v-.1c-1.9-2.6-4.6-6.2-9.8-4.2-5.7 2.2-5.7 10.5-5.7 14 0 1.1.9 2.1 2.1 2.1 1.1 0 2.1-.9 2.1-2.1 0-2.5 0-9 3.1-10.2 2-.8 2.8-.2 5 2.7l.1.1c2.2 3.2 5.2 5.9 8.6 7.7 6.3 3.1 13.2 4.7 20.2 4.5 1.1 0 2.1 0 3.2-.1 5-.2 10-1.2 14.8-2.8 8.9-3.1 16.6-9.1 21.9-16.9 5.2-8.1 8.1-17.5 8.2-27.1.2-7.9-1.4-15.8-4.9-22.9z"/></g></g><g id="Group_17811" transform="translate(12.594 22.888)"><g id="Group_17810"><path id="Path_17207" d="M90.4 41.4c-.6-1.7-2-2.9-3.7-3.3h-.1c-1.1-.1-3.3.2-5.1 3.4-3.9 5.6-9.4 9.8-15.8 12.1-7.7 3-15.5 3.5-23.7 4-2.4.1-4.7.5-7 1.3-5.7 1.8-8.8 7.9-7 13.6.5 1.7 1.5 3.2 2.7 4.4 2.2 2.2 5 3.9 7.9 4.8 4.3 1.6 8.8 2.3 13.3 2.3 3.3 0 6.6-.4 9.8-1.2C69.4 81 76.4 77.1 82 71.6c4.1-3.7 7.2-8.4 9-13.6 2.1-5.3 1.8-11.3-.6-16.6zm-3.3 15.3c-1.6 4.6-4.4 8.7-8 12-5.1 5-11.4 8.5-18.3 10.3-6.9 1.7-14.1 1.4-20.7-1-2.4-.8-4.5-2.1-6.3-3.8-2.7-2.5-2.9-6.8-.4-9.5.8-.9 1.9-1.5 3-1.9h.1c1.8-.7 3.8-1 5.7-1.1 8.2-.5 16.7-1.1 24.9-4.3 7.3-2.5 13.5-7.3 17.8-13.7l.1-.1c.2-.5.6-.9 1-1.3.2.3.4.5.5.9 0 0 0 .1.1.1 2 4.2 2.2 9 .5 13.4z" fill="#1c499c"/></g></g></g></svg>