<svg xmlns="http://www.w3.org/2000/svg" viewBox="0 0 128 128"><path d="M88 59c.1-.5.2-1.1.2-1.7-.3-4.1-2.2-7.9-5.3-10.6.2 0 .4 0 .5.1 3.2.4 6.1-1.8 6.5-5 .4-2.7-1.2-5.3-3.8-6.2-2.2-.8-4.4-1.3-6.7-1.6.3-1.1.4-2.3.4-3.4-.3-4.9-3.6-9.1-8.3-10.5V19c0-2.8-2.2-5-5-5s-5 2.2-5 5v.3c-.6.1-1.1.2-1.6.4l-.9-2.2c-.9-2.3-3.5-3.4-5.8-2.5-2.1.8-3.3 3.2-2.6 5.4L52 25c-.8 1.1-1.6 2.3-2.1 3.6-.1-3.8-1.1-7.4-3-10.7-1.4-2.4-4-3.9-6.8-3.9h-6.5c-1.9 0-3.4 1.5-3.4 3.4 0 .7.2 1.5.7 2 2.3 2.7 3.7 6 4 9.6v22.5c-3.1 3.3-6.7 9.6-6.7 20.9 0 14.9 1.8 17.6 3.6 18.4.3.1.6.2.9.2h.3c.6 1.2 1.2 2.5 1.9 3.6v12c0 4.1 3.3 7.5 7.4 7.5 2.3 0 4.5-1 5.9-2.8 2.5 3.2 7.2 3.8 10.4 1.3.7-.6 1.3-1.2 1.8-2 .9.1 1.9.2 2.8.3 4.9 0 9.8.7 14.6 2 2.8.8 5.8 1.3 8.7 1.4 4 0 13.3-1.9 13.3-20 0-8.6-4.1-23.6-11.8-35.3zm-3.2-1.7c0 .4 0 .8-.1 1.2 0 .1-.1.2-.1.2-.1.3-.3.6-.5.8H84c-.1.1-.2.1-.3.2-.1 0-.1.1-.2.1-.2.1-.3.2-.5.2-.1 0-.1 0-.2.1-.2.1-.4.1-.6.2H82c-.3.1-.6.1-.9.1h-2.5c-.3 0-.5-.1-.8-.1h-.1c-.2 0-.5-.1-.7-.2h-.1c-.2-.1-.3-.1-.5-.2-.1 0-.1-.1-.2-.1-.1-.1-.2-.1-.3-.2-.1-.1-.2-.1-.2-.2s-.1-.1-.2-.1c-.1-.1-.2-.1-.2-.2l-.1-.1c-.1-.1-.1-.2-.2-.2 0 0 0-.1-.1-.1 0-.1-.1-.1-.1-.2s-.1-.3-.1-.4v-.2c0-.1 0-.1.1-.2 0-.1.1-.2.1-.3.2-.3.4-.5.6-.7.3-.3.5-.6.7-.9 0-.1.1-.1.1-.1.1-.1.1-.2.2-.3 0-.1.1-.1.1-.2.2-.3.3-.6.5-1 0-.1.1-.1.1-.2l.3-.9c0-.1.1-.2.1-.4.1-.3.1-.5.2-.8 0-.1 0-.2.1-.4 0-.1 0-.3.1-.4V51c0-.2 0-.4.1-.7v-.8-.2-.1-.2-.8-.2-.4c4 2.1 6.4 5.7 6.7 9.7zm-7.5-20h.9c2.3.1 4.7.6 6.8 1.5.7.2 1.2.7 1.5 1.4.3.6.2 1.4-.1 2-.5.9-1.5 1.5-2.5 1.3-2.7-.6-5.5-.3-8.1.7-.2.1-.4.2-.5.4h-.1v.1c-.2.2-.2.3-.3.5v.7l.3 1.7v2.5c0 .4-.1.8-.1 1.1v.1c-.1.4-.1.7-.2 1v.1s0 .1-.1.1c-.1.3-.2.5-.3.8-.1.1-.1.2-.2.3-.2.3-.4.6-.6.8-.2.2-.4.5-.6.7h-.3c-.9.1-1.7.2-2.7.3h-.4c-1 .1-2.1.1-3.1.1-.3 0-.7 0-1.1-.1-.2 0-.4 0-.6-.1s-.4-.1-.6-.1-.5-.1-.7-.1c-.2 0-.3-.1-.5-.1-.3-.1-.5-.1-.8-.2l-.3.1c-1.2-.4-2.4-.9-3.6-1.5-.2-.2-.4-.4-.7-.6v-.2-.1c.1-.7.2-1.3.5-1.9v-.1c.1-.3.3-.7.5-1.1l.1-.3c.2-.4.4-.8.7-1.2l.1-.1c.9-1.5 2-3 3.2-4.4l.1-.1c.4-.5.8-.9 1.3-1.4.4-.4.9-.8 1.4-1.2.1-.1.2-.1.3-.2.4-.3.8-.6 1.2-.8.2-.1.3-.2.5-.3.3-.2.7-.4 1-.5l.6-.3c.3-.1.7-.2 1-.3.2-.1.4-.1.6-.2.4-.1.7-.2 1.1-.2.2 0 .3 0 .5-.1.4-.1.8-.1 1.3-.2h.2c1.1-.2 2.2-.3 3.4-.3zM49.8 47.5c0-9.9 1.8-16.9 5.2-21 .4-.4.5-1 .3-1.5l-1.6-5.5c-.1-.6.2-1.2.8-1.3.5-.1 1.1.1 1.3.6l1.5 3.6c.3.9 1.3 1.3 2.2.9 1.2-.5 2.5-.8 3.8-.9.9-.1 1.5-.8 1.5-1.7V19c0-.9.7-1.7 1.7-1.7.9 0 1.7.7 1.7 1.7v2.4c0 .7.5 1.4 1.2 1.6 4.3 1.2 7.1 4.3 7.1 7.7 0 1.1-.2 2.3-.5 3.3-1.1 0-2.2.1-3.4.2h-.2c-.5.1-.9.1-1.4.2-.2 0-.3.1-.5.1-.4.1-.9.2-1.3.4-.2.1-.4.1-.6.2-.3.1-.6.2-.9.4-.3.1-.5.2-.8.4-.4.2-.7.4-1.1.6-.1.1-.2.1-.3.2.5-1.4 1.3-2.7 2.7-2.7.9 0 1.7-.7 1.7-1.7 0-.9-.7-1.7-1.7-1.7-4.9 0-6.5 5.6-6.6 9.3-.2.2-.4.4-.6.7-.1.2-.3.3-.4.5-.2.3-.5.5-.7.8-.2.2-.3.4-.5.6l-.9 1.2-.2.3c-1.6 2-2.7 4.3-3.5 6.8h-1.1c-.2-.1-.4-.2-.7-.2l-1-.5c-.7-.2-1.4-.5-2.1-.7l-.1-1.9zM33.5 17.3H40c1.6 0 3.1.9 3.9 2.2 1.7 2.9 2.5 6.1 2.5 9.4v17.2c-.8.3-1.6.6-2.3.9-2.1-.2-4.3.4-6 1.6V29c-.3-4.3-1.9-8.3-4.6-11.7zm1.7 68.5c-.4.9-.8 1.4-1.5 1.5H33.1c-.5-1-1.4-4.3-1.4-15s3.4-16.2 6.1-19h.1c2.7-2.6 5.2-3.2 6.2-2.9h.2c2.2 1.1 4.5 2 6.8 2.7l.8.3.7.3c1 .3 1.9.7 2.8 1.3 0 .1.1.1.1.2.2.2.4.4.7.5.1.1.2.2.2.3v.1c.1.1.1.3.2.5v.1c0 .2.1.4.1.7 0 5.8-9.3 13.3-14.3 17.4-1.6 1.3-2.8 2.3-3.6 3.1-.2.2-.4.4-.6.7v.1c-1.1 1.5-1.8 3.3-2.2 5.1-.3.6-.6 1.3-.8 2zm11.3 20.7c0 2.3-1.9 4.2-4.2 4.2-2.3 0-4.2-1.9-4.2-4.2v-7.6c2.4 2.6 5.2 4.9 8.3 6.7v.9zm7.5 4.2c-2 0-3.7-1.4-4.1-3.4 2.2 1 4.5 1.8 6.8 2.4-.8.6-1.7 1-2.7 1zm19.2-2.5c-3.3-.6-6.7-.9-10-.9-1.1 0-2.3-.2-3.4-.4-3.8-.7-7.4-2-10.8-3.9-.5-.2-.9-.5-1.3-.8l-.6-.3c-.4-.2-.7-.5-1.1-.7-.3-.2-.6-.4-.8-.6-.3-.2-.6-.4-.9-.7-.3-.3-.7-.6-1-.9-.4-.4-.8-.7-1.2-1.1l-.8-.8-.9-.9c-.2-.2-.4-.5-.6-.7-.5-.7-1-1.3-1.5-2-.8-1.2-1.5-2.4-2.1-3.7 0 0 .1 0 .1-.1.2-.1.4-.3.6-.5l.3-.3c.1-.1.2-.3.4-.4.1-.1.1-.2.2-.3l.3-.6.3-.6c.1-.1.1-.3.2-.4.1-.2.1-.4.2-.6v-.1c.2-.5.3-1 .4-1.4.3-1.2.7-2.4 1.3-3.4.2-.3.4-.6.7-.9.6-.6 1.9-1.7 3.3-2.8l1.1-.9c.6 2.5 1 5 1 7.6-.2 3.3 1.4 6.4 4.3 8.2.2.1.5.2.7.2.9 0 1.7-.7 1.7-1.7 0-.6-.3-1.2-.9-1.5-1.3-.9-2.2-2.3-2.3-3.8 1.1.2 2.1.3 3.2.3.9 0 1.7-.7 1.7-1.7 0-.9-.7-1.7-1.7-1.7-1.2 0-2.3-.1-3.4-.5-.2-2.6-.7-5.2-1.5-7.7l.1-.1c.3-.3.6-.5.9-.8.2-.1.3-.3.5-.4.3-.2.5-.5.8-.7l.5-.5c.3-.2.5-.5.8-.7l.5-.5.7-.7c.2-.2.3-.4.5-.5.3 1.1.9 2.1 1.6 2.9.8 1.1 1.2 2.5 1.2 3.8 0 .9.7 1.7 1.7 1.7.9 0 1.7-.7 1.7-1.7v-.4c.5.3 1.1.4 1.7.4.9 0 1.7-.7 1.7-1.7 0-.9-.7-1.7-1.6-1.7-1.5-.7-2.8-1.7-3.8-2.9-.8-1.1-1.2-2.5-1.2-3.8.1-.2.3-.4.4-.6.2-.2.3-.5.5-.7.1-.2.3-.4.4-.6.1-.2.3-.5.4-.7l.3-.6c.1-.2.2-.5.3-.7s.2-.4.2-.6c.1-.2.2-.5.3-.7.1-.2.1-.4.2-.7.1-.2.1-.5.2-.7s.1-.4.1-.7c0-.2.1-.4.1-.5.1 0 .3.1.4.1.2.1.4.1.6.2.4.1.7.2 1.1.3.1 0 .3.1.4.1l1.2.3c.2 0 .3.1.5.1.3.1.7.1 1 .1.5.1 1 .1 1.4.1.9 0 1.7 0 2.5-.1h.7c.6 0 1.2-.1 1.7-.1h.4c0 .3.1.6.2.9v.1c0 .1.1.2.1.3.1.1.1.2.2.4 0 .1 0 .1.1.2 0 .1.1.1.1.1.1.2.2.3.3.5.1.1.2.2.2.3l.4.4.3.3c.1.1.3.2.5.3.1.1.3.2.4.2.2.1.3.2.5.3s.3.1.5.2.4.1.5.2.4.1.6.2.3.1.5.1c.1 0 .2 0 .3.1-1.5 4.4-2.4 8.9-2.8 13.5 0 .4 0 .8.1 1.2-.3.8-1.7 3.8-3.4 3.8-.9 0-1.7.7-1.7 1.7 0 .9.7 1.7 1.7 1.7 2-.1 3.8-1.2 4.9-2.9l1.2 2.1c1.3 1.7 2 3.7 2.3 5.8-.1 3.4-1.3 6.7-3.4 9.4-1.9 1.8-3 4.7-3.4 7.6zm13.3 2.5c-2.7-.1-5.4-.5-8-1.3-.7-.2-1.3-.3-2-.5.2-2.6 1.2-5.1 2.8-7.1 1.7-2.4 2.9-5.1 3.6-8 1.4 1.1 2.6 2.5 3.6 4 0 1.2-.4 2.4-1.2 3.4-.7.6-.7 1.7-.1 2.4s1.7.7 2.4.1l.1-.1c.6-.6 1.1-1.4 1.4-2.2.7.6 1.5 1 2.4 1.1.9 0 1.7-.7 1.7-1.6 0-.9-.7-1.7-1.6-1.7-.1 0-1-.4-2-2.4-1.7-2.7-3.9-5-6.5-6.8-.4-2.4-1.3-4.6-2.7-6.6-1.3-1.7-2-3.7-2.3-5.8 0-1 .1-2 .3-3 1.6 3.1 4.3 5.4 7.6 6.3 2 .5 3.5 3.1 3.9 4 .3.9 1.3 1.3 2.2.9.9-.3 1.3-1.3.9-2.2-.2-.5-2.2-5-6.1-6-5.5-1.4-7.1-8.6-7.1-8.7 0 0 0-.1-.1-.1.5-1.9 1-3.5 1.3-4.6.9 0 1.8-.2 2.7-.4l.2-.1c.1 0 .3-.1.4-.1.6-.2 1.2-.6 1.8-1C92.9 73.2 96.5 86.5 96.5 94c0 14.5-6.3 16.7-10 16.7z" fill="#646464"/></svg>