<svg xmlns="http://www.w3.org/2000/svg" viewBox="0 0 128 128"><path d="M113.9 69.7c-.7-5.1-4.8-9.1-9.9-9.9v-3c.3-8.1-6.1-14.9-14.2-15.2-7.9.3-14.1 6.8-14.2 14.7h.1-.1v32.8c0 10.5-7.9 19-17.5 19s-17.5-8.5-17.5-19v-2.8c2.4 0 5-1.8 5-6.7v-4.2C56.1 73.1 63.7 64 64 53.2v-3.5h-3.3L60.6 28c0-4-2.9-7.4-6.9-8.2-.9-2.6-3.7-4-6.3-3.2-2.6.9-4 3.7-3.2 6.3s3.7 4 6.3 3.2c1.4-.5 2.5-1.5 3.1-2.9 2.1.6 3.6 2.5 3.6 4.8l.1 21.7H54v3.5c-.1 5.8-4 10.8-9.6 12.4-3 .9-6.2.9-9.2 0-5.6-1.6-9.4-6.6-9.6-12.4v-3.5h-5V28.1c0-2.3 1.5-4.2 3.7-4.8 1 2.6 3.9 3.9 6.5 2.8s3.9-3.9 2.8-6.5-3.9-3.9-6.5-2.8c-1.4.5-2.5 1.7-2.9 3.1-4 .7-6.9 4.1-6.9 8.2v21.7H14v3.5c.3 10.8 7.8 19.9 18.3 22.3v4.2c0 4.9 2.6 6.7 5 6.7v2.8c0 12.3 9.3 22.4 20.8 22.4S79 101.6 79 89.2V56.5c0-6.1 4.7-11.2 10.8-11.5 6.3.3 11.1 5.6 10.8 11.8v3c-6.4.9-10.8 6.8-9.9 13.2.9 6.4 6.8 10.8 13.2 9.9s10.9-6.8 10-13.2zM49 23.1c-.9 0-1.7-.7-1.7-1.7s.7-1.7 1.7-1.7c.9 0 1.7.7 1.7 1.7 0 .9-.8 1.7-1.7 1.7zm-20-3.4c.9 0 1.7.7 1.7 1.7s-.7 1.7-1.7 1.7-1.7-.7-1.7-1.7.8-1.7 1.7-1.7zM17.3 53.2v-.1h5v.2c.1 7.2 4.9 13.6 11.9 15.6 3.6 1.2 7.6 1.2 11.2 0 7-2 11.8-8.4 11.9-15.6v-.2h3.3v.1c0 9.3-7.1 17.4-17 19.4-2.3.5-4.7.6-7 .3-.8-.1-1.5-.2-2.3-.3-9.8-2-17-10.1-17-19.4zm20 29.9c-1.5 0-1.7-2.3-1.7-3.3v-3.5h.9c.8.1 1.6.1 2.4.1h.1c.8 0 1.6 0 2.4-.1h.9v3.5c0 1-.2 3.3-1.7 3.3h-3.3zm65-3.4c-4.6 0-8.3-3.7-8.3-8.3 0-4.6 3.7-8.3 8.3-8.3 4.6 0 8.3 3.7 8.3 8.3.1 4.6-3.7 8.3-8.3 8.3z" fill="#646464"/><path d="M102.314 66.409c-2.8 0-5 2.2-5 5s2.2 5 5 5 5-2.2 5-5-2.2-5-5-5zm0 6.7c-.9 0-1.7-.7-1.7-1.7 0-.9.7-1.7 1.7-1.7.9 0 1.7.7 1.7 1.7 0 .9-.8 1.7-1.7 1.7z" fill="#1c499c"/></svg>