<svg version="1.1" id="Layer_1" xmlns="http://www.w3.org/2000/svg" x="0" y="0" viewBox="0 0 128 128" xml:space="preserve"><style>.st0{fill:#646464}.st1{fill:#1c499c}</style><g id="XMLID_1775_" transform="translate(-25.233)"><g id="XMLID_345_" transform="translate(25.233)"><path id="XMLID_1638_" class="st0" d="M26.2 98.3c-4.5 3.1-7.2 8.3-7.2 13.8 0 1.1.9 2 2 2s2-.9 2-2c0-4.2 2.1-8.2 5.5-10.6.9-.6 1.1-1.8.5-2.7-.7-.9-2-1.1-2.8-.5z"/><path id="XMLID_1687_" class="st0" d="M92.3 95.3H75.7v-8.6c6.2 6.2 16.3 6.1 22.5-.1 6.2-6.2 6.1-16.3-.1-22.5-2.6-2.6-6-4.2-9.7-4.5v-7.4c1.1-.6 2.1-1.5 2.7-2.6 5-8.7 2.1-19.9-6.7-25l-15.3-8.9c-4.3-2.5-9.7-2.4-13.9.4-1.5 1-2.8 2.3-3.8 3.9l-7.9 4.6c-8.7 5-11.7 16.2-6.7 25 .6 1.1 1.6 2 2.7 2.6v12.2c0 8.9 4.9 17.2 12.7 21.5v9.5h-7.8c-1.1 0-2 .9-2 2s.9 2 2 2h9.8c1.1 0 2-.9 2-2v-9.7c5.1 1.7 10.6 1.7 15.6 0v9.7c0 1.1.9 2 2 2h18.6c7.1 0 12.8 5.7 12.8 12.8 0 1.1.9 2 2 2s2-.9 2-2c-.1-9.4-7.6-16.9-16.9-16.9zm6.6-19.9c0 6.6-5.4 12-12 12s-12-5.4-12-12 5.4-12 12-12 12 5.4 12 12zM57.4 19.5c2.9-2 6.8-2.1 9.8-.3L82.5 28c6.9 4 9.2 12.8 5.3 19.6-.8 1.4-2.6 1.9-3.9 1.1l-26.1-15c-4-2.3-5.4-7.4-3.1-11.4.7-1.2 1.6-2.1 2.7-2.8zM38.8 36.7c1-3.7 3.4-6.8 6.7-8.7l4.2-2.4v1.2c.1 4.3 2.4 8.1 6.1 10.3l4.3 2.5-15.9 9.2c-1.4.8-3.1.3-3.9-1.1-2-3.3-2.5-7.3-1.5-11zm4.7 27.6V53c.9-.1 1.9-.4 2.7-.9L64 41.8l17.9 10.3c.8.5 1.7.8 2.7.9v6.7c-8.7 1.3-14.7 9.4-13.4 18.1.3 1.8.8 3.5 1.7 5.1-10.2 4.9-22.5.6-27.4-9.7-1.4-2.8-2-5.8-2-8.9z"/><path id="XMLID_1694_" class="st1" d="M58.3 55.2c-.8-.8-2-.8-2.8 0-.8.8-2.1.8-2.9 0-.8-.8-2-.8-2.8 0-.8.8-.8 2 0 2.8 2.3 2.3 6.1 2.3 8.5 0 .8-.7.9-1.9.2-2.7-.1-.1-.1-.1-.2-.1z"/><path id="XMLID_1695_" class="st1" d="M78.2 58c.8-.8.8-2 0-2.8-.8-.8-2-.8-2.8 0-.8.8-2.1.8-2.9 0-.8-.8-2-.8-2.8 0-.8.8-.8 2 0 2.8 2.4 2.3 6.2 2.3 8.5 0z"/><path id="XMLID_1696_" class="st1" d="M85.5 69.5c-.8.8-.8 2 0 2.8.8.8 2 .8 2.8 0 .8-.8.8-2 0-2.8-.4-.4-.9-.6-1.4-.6-.6 0-1.1.2-1.4.6z"/><path id="XMLID_1701_" class="st1" d="M82.5 76.7c-1.1 0-2 .9-2 2s.9 2 2 2 2-.9 2-2c0-.5-.2-1-.6-1.4-.4-.3-.9-.6-1.4-.6z"/><path id="XMLID_1703_" class="st1" d="M91.4 80.7c1.1 0 2-.9 2-2s-.9-2-2-2-2 .9-2 2c0 .5.2 1 .6 1.4.4.3.9.6 1.4.6z"/><path id="XMLID_1704_" class="st1" d="M51.2 64.8c-1.1 0-2 .9-2 2s.9 2 2 2 2-.9 2-2c0-.5-.2-1-.6-1.4-.4-.4-.9-.6-1.4-.6z"/><path id="XMLID_1705_" class="st1" d="M59 64.8c-1.1 0-2 .9-2 2s.9 2 2 2 2-.9 2-2c0-.5-.2-1-.6-1.4-.4-.4-.9-.6-1.4-.6z"/><path id="XMLID_1707_" class="st0" d="M35.7 95.3c-1.1 0-2 .9-2 2s.9 2 2 2 2-.9 2-2c0-.5-.2-1-.6-1.4-.4-.4-.9-.6-1.4-.6z"/></g></g></svg>