<svg version="1.1" id="Layer_1" xmlns="http://www.w3.org/2000/svg" x="0" y="0" viewBox="0 0 128 128" xml:space="preserve"><style>.st0{fill:#646464}</style><g id="Group_17801"><g id="Group_17800"><path id="Path_17185" class="st0" d="M116.8 92.2L105 52.4C101.8 39.2 91.4 32 75.5 32c-1.7 0-3.3.6-4.6 1.6-.4-.4-.9-.6-1.4-.6-1.2.1-2.1 1.1-2.1 2.3v8h-7V14.5h7v.1c0 1.2.9 2.1 2.1 2.1s2.1-.9 2.1-2.1v-2.4c0-.6-.2-1.2-.6-1.6-.4-.4-.9-.7-1.5-.7H58.4c-1.2.1-2.1 1.1-2.1 2.3V33c-1.2-.7-2.5-1.1-3.9-1.1-15.9 0-26.3 7.3-29.4 20.4L11.3 92.1v.1c-1.3 4.9.1 10.2 3.6 13.8 2.5 2.5 6 3.9 9.6 3.9 1.9 0 3.7-.4 5.5-1.1 3.8-1 7.6-1.8 11.4-2.3h.2c6.4-1.6 12-5.4 15.8-10.7 2.7-3.6 2.9-7.7 3.1-11.6 0-.7.1-1.4.1-2V66.8l3.5-1.7 3.5 1.7v15.5c0 .7.1 1.4.1 2 .2 3.9.4 8 3.1 11.6 3.9 5.3 9.5 9.1 15.8 10.7h.2c3.8.5 7.7 1.3 11.4 2.3 1.7.7 3.6 1.1 5.5 1.1 3.6 0 7-1.4 9.6-3.9 3.4-3.7 4.8-8.9 3.5-13.9zM56.4 82c0 .7-.1 1.4-.1 2-.2 3.5-.3 6.5-2.2 9-3.3 4.5-8 7.7-13.4 9.1-4.1.6-8.2 1.4-12.2 2.5-3.7 1.6-7.9.8-10.8-2-2.4-2.4-3.3-6-2.4-9.3l11.8-39.7v-.1c3.3-14.1 15.6-17.1 25.4-17.1 1.1 0 2.2.5 2.9 1.4.6.7.9 1.6 1 2.5v5.1c0 4.2-2.7 7.9-6.6 9.1l-.9.2c-1.8.5-3.8.3-5.5-.6L43 54c-.8-.4-1.7-.3-2.3.3s-.9 1.6-.6 2.5l1.9 5.9h-6.3c-1.3.2-2.2 1.3-2 2.6.1 1 1 1.9 2 2h7.7l1.9 5.9v1.3l-14.8 2.2c-1.2.2-2 1.4-1.8 2.6.1 1.1 1 1.9 2.1 2h.3l13.5-2c-1.3 4.3-4.2 7.2-9 11.2l-.4.4c-.9.8-1.1 2.2-.4 3.2.4.5 1 .9 1.6.9.5 0 .9-.2 1.3-.5l.4-.4c6.6-5.6 11.3-10.3 11.4-20.6v-.1c.1-.7.6-1.4 1.3-1.7l5.6-2.8V82zM49 67.6c-.3.2-.6.3-.9.5l-2.7-8.6c1.5.2 3.1.1 4.6-.3l.9-.2c5-1.6 8.7-6 9.5-11.2H62v13.3l-13 6.5zm17.1-19.8h1.6c.8 5.2 4.5 9.6 9.5 11.2l.9.2c1.5.4 3 .5 4.6.3L80 68.1c-.3-.2-.6-.4-.9-.5l-12.9-6.5-.1-13.3zm44.2 54.9c-2.9 2.8-7.2 3.5-10.8 2-4-1.1-8.1-1.9-12.2-2.5-5.4-1.4-10.2-4.6-13.4-9.1-1.8-2.5-2-5.5-2.2-9 0-.7-.1-1.3-.1-2V68.9l5.6 2.8c.7.3 1.1 1 1.3 1.7v.1c0 10.2 4.7 15 11.4 20.6l.4.4c.4.3.8.5 1.3.5.7 0 1.3-.3 1.6-.9.7-1 .5-2.4-.4-3.2l-.4-.4c-4.8-4-7.7-6.9-9-11.2l13.5 2h.3c1.1 0 2-.9 2.1-2 .2-1.2-.6-2.3-1.8-2.6l-14.8-2.2v-1.3l1.9-5.9h7.7c1.3-.2 2.2-1.3 2-2.6-.1-1-1-1.9-2-2H86l1.9-5.9c.3-.9.1-1.8-.6-2.5-.6-.6-1.5-.7-2.3-.3l-.4.2c-1.7.9-3.7 1.2-5.5.6l-.9-.2c-3.9-1.3-6.6-5-6.6-9.1v-5c.1-.9.4-1.9 1-2.6.7-.9 1.7-1.4 2.9-1.4 9.8 0 22.1 3 25.4 17.1v.1l11.8 39.7c.9 3.3 0 6.8-2.4 9.3z"/><path id="Path_17186" class="st0" d="M69.1 22c-1.2.2-1.9 1.4-1.7 2.5.2 1.2 1.4 1.9 2.5 1.7 1.2-.2 1.9-1.4 1.7-2.5 0-.2-.1-.3-.2-.5-.3-.9-1.3-1.3-2.3-1.2z"/></g></g></svg>