<?xml version="1.0" encoding="utf-8"?>
<!-- Generator: Adobe Illustrator 24.0.3, SVG Export Plug-In . SVG Version: 6.00 Build 0)  -->
<svg version="1.1" id="Layer_1" xmlns="http://www.w3.org/2000/svg" xmlns:xlink="http://www.w3.org/1999/xlink" x="0px" y="0px"
	 viewBox="0 0 32 32" style="enable-background:new 0 0 32 32;" xml:space="preserve">
<g id="at" transform="translate(-2.15)">
	<path id="Path_93" d="M29.63,4.04c-2.96-2.71-6.87-4.15-10.88-4.03C14.41-0.08,10.22,1.57,7.1,4.59C3.95,7.54,2.2,11.7,2.29,16.02
		c-0.06,4.22,1.59,8.28,4.58,11.26C9.93,30.43,14.05,32,19.22,32c3.16-0.01,6.29-0.66,9.18-1.93c0.98-0.41,1.45-1.54,1.06-2.53l0,0
		c-0.41-1-1.54-1.48-2.54-1.08c-0.01,0.01-0.03,0.01-0.04,0.02c-2.41,1.08-5.02,1.65-7.66,1.68c-3.97,0-7.04-1.21-9.22-3.63
		c-2.14-2.32-3.3-5.36-3.26-8.51c-0.09-3.31,1.17-6.5,3.5-8.86c2.24-2.33,5.35-3.62,8.58-3.55c2.92-0.08,5.75,0.97,7.92,2.92
		c2.11,1.85,3.29,4.54,3.23,7.34c0.07,1.8-0.45,3.56-1.48,5.04c-0.99,1.34-2.01,2.01-3.07,2.01c-0.57,0-0.86-0.31-0.86-0.93
		c0.01-0.59,0.04-1.18,0.11-1.77l1.21-9.93h-4.18l-0.27,0.97c-0.97-0.84-2.21-1.3-3.5-1.31c-1.99-0.01-3.88,0.87-5.16,2.4
		c-1.48,1.71-2.24,3.92-2.15,6.18c-0.1,2.15,0.57,4.27,1.91,5.96c1.1,1.43,2.79,2.26,4.59,2.26c1.6,0,3.12-0.74,4.1-2.01
		c0.83,1.27,2.27,2,3.78,1.93c2.5-0.02,4.84-1.2,6.34-3.2c1.79-2.16,2.74-4.9,2.67-7.71C34.04,10.06,32.44,6.5,29.63,4.04z
		 M20.01,19.06c-0.58,0.91-1.57,1.47-2.64,1.49c-0.72-0.02-1.38-0.44-1.68-1.1c-0.46-0.83-0.68-1.78-0.65-2.73
		c-0.06-1.15,0.25-2.29,0.89-3.25c0.49-0.76,1.33-1.23,2.23-1.24c0.79,0.01,1.53,0.34,2.06,0.93c0.62,0.67,0.94,1.56,0.9,2.47
		C21.13,16.87,20.74,18.07,20.01,19.06z"/>
</g>
</svg>
