<?xml version="1.0" encoding="utf-8"?>
<!-- Generator: Adobe Illustrator 24.0.3, SVG Export Plug-In . SVG Version: 6.00 Build 0)  -->
<svg version="1.1" id="Layer_1" xmlns="http://www.w3.org/2000/svg" xmlns:xlink="http://www.w3.org/1999/xlink" x="0px" y="0px"
	 viewBox="0 0 32 32" style="enable-background:new 0 0 32 32;" xml:space="preserve">
<path id="Path_85" d="M16,8V1.6H0v28.8h32V8H16z M6.4,27.2H3.2V24h3.2V27.2z M6.4,20.8H3.2v-3.2h3.2V20.8z M6.4,14.4H3.2v-3.2h3.2
	V14.4z M6.4,8H3.2V4.8h3.2V8z M12.8,27.2H9.6V24h3.2V27.2z M12.8,20.8H9.6v-3.2h3.2V20.8z M12.8,14.4H9.6v-3.2h3.2V14.4z M12.8,8
	H9.6V4.8h3.2V8z M28.8,27.2H16V24h3.2v-3.2H16v-3.2h3.2v-3.2H16v-3.2h12.8V27.2z M25.6,14.4h-3.2v3.2h3.2V14.4z M25.6,20.8h-3.2V24
	h3.2V20.8z"/>
</svg>
