<?xml version="1.0" encoding="utf-8"?>
<!-- Generator: Adobe Illustrator 24.0.3, SVG Export Plug-In . SVG Version: 6.00 Build 0)  -->
<svg version="1.1" id="Layer_1" xmlns="http://www.w3.org/2000/svg" xmlns:xlink="http://www.w3.org/1999/xlink" x="0px" y="0px"
	 viewBox="0 0 32 32" style="enable-background:new 0 0 32 32;" xml:space="preserve">
<g id="language">
	<path id="Path_83" d="M16,0C7.16,0,0,7.16,0,16s7.16,16,16,16s16-7.16,16-16C31.97,7.17,24.83,0.03,16,0z M27.04,9.6H22.4
		c-0.51-2-1.26-3.94-2.24-5.76C23.04,4.96,25.6,6.88,27.04,9.6z M16,3.2c1.36,1.95,2.39,4.11,3.04,6.4h-6.08
		C13.64,7.33,14.67,5.17,16,3.2z M3.68,19.2C3.35,18.17,3.19,17.09,3.2,16c-0.01-1.09,0.15-2.17,0.48-3.2h5.44
		c-0.13,1.06-0.19,2.13-0.16,3.2c0,1.12,0.16,2.08,0.16,3.2H3.68z M4.96,22.4H9.6c0.51,2,1.26,3.94,2.24,5.76
		C8.96,27.04,6.4,25.12,4.96,22.4z M9.6,9.6H4.96c1.57-2.65,4-4.68,6.88-5.76C10.86,5.66,10.11,7.6,9.6,9.6z M16,28.8
		c-1.36-1.95-2.39-4.11-3.04-6.4h6.08C18.36,24.67,17.33,26.83,16,28.8z M19.68,19.2h-7.36c-0.19-1.06-0.29-2.13-0.32-3.2
		c0.03-1.07,0.13-2.14,0.32-3.2h7.52c0.19,1.06,0.29,2.13,0.32,3.2C20.16,17.12,19.84,18.08,19.68,19.2z M20.16,28.16
		c1.01-1.81,1.76-3.75,2.24-5.76h4.64C25.6,25.12,23.04,27.04,20.16,28.16z M23.04,19.2c0.13-1.06,0.19-2.13,0.16-3.2
		c0-1.12-0.16-2.08-0.16-3.2h5.44c0.33,1.03,0.49,2.11,0.48,3.2c0.01,1.09-0.15,2.17-0.48,3.2H23.04z"/>
</g>
</svg>
